G04*
G04 #@! TF.GenerationSoftware,Altium Limited,Altium Designer,19.0.10 (269)*
G04*
G04 Layer_Color=8388736*
%FSLAX25Y25*%
%MOIN*%
G70*
G01*
G75*
%ADD28R,0.03750X0.03750*%
%ADD29R,0.04737X0.04343*%
%ADD30R,0.04537X0.04537*%
%ADD31R,0.04537X0.04537*%
%ADD32R,0.04343X0.04737*%
%ADD33R,0.02572X0.07690*%
%ADD34O,0.09068X0.03162*%
%ADD35R,0.07887X0.07099*%
%ADD36R,0.10800X0.04800*%
%ADD37R,0.09068X0.22847*%
%ADD38C,0.05162*%
%ADD39C,0.09461*%
D28*
X128000Y83368D02*
D03*
Y89274D02*
D03*
D29*
X120000Y89215D02*
D03*
Y82522D02*
D03*
X81696Y88346D02*
D03*
Y81653D02*
D03*
X72496Y88346D02*
D03*
Y81653D02*
D03*
X61528Y88346D02*
D03*
Y81653D02*
D03*
X53000Y88346D02*
D03*
Y81653D02*
D03*
X127347Y22197D02*
D03*
Y15504D02*
D03*
D30*
X112000Y89018D02*
D03*
Y82718D02*
D03*
X39000Y48850D02*
D03*
Y55150D02*
D03*
X120445Y22150D02*
D03*
Y15850D02*
D03*
X54000Y119150D02*
D03*
Y112850D02*
D03*
X47000Y55150D02*
D03*
Y48850D02*
D03*
D31*
X67150Y72000D02*
D03*
X60850D02*
D03*
X53150Y42000D02*
D03*
X46850D02*
D03*
X126150Y60000D02*
D03*
X119850D02*
D03*
D32*
X46347Y69000D02*
D03*
X39654D02*
D03*
X46347Y62000D02*
D03*
X39654D02*
D03*
X127000Y36000D02*
D03*
X120307D02*
D03*
Y30000D02*
D03*
X127000D02*
D03*
D33*
X61528Y100512D02*
D03*
X64087D02*
D03*
X66646D02*
D03*
X69205D02*
D03*
X71764D02*
D03*
X74323D02*
D03*
X76882D02*
D03*
X79441D02*
D03*
X82000D02*
D03*
X84559D02*
D03*
X61528Y128858D02*
D03*
X64087D02*
D03*
X66646D02*
D03*
X69205D02*
D03*
X71764D02*
D03*
X74323D02*
D03*
X76882D02*
D03*
X79441D02*
D03*
X82000D02*
D03*
X84559D02*
D03*
D34*
X75547Y49500D02*
D03*
Y54500D02*
D03*
Y59500D02*
D03*
Y64500D02*
D03*
X56453Y49500D02*
D03*
Y54500D02*
D03*
Y59500D02*
D03*
Y64500D02*
D03*
D35*
X129748Y111142D02*
D03*
X98252D02*
D03*
X129748Y128858D02*
D03*
X98252D02*
D03*
X10252D02*
D03*
X41748D02*
D03*
X10252Y111142D02*
D03*
X41748D02*
D03*
D36*
X11000Y36968D02*
D03*
Y62968D02*
D03*
D37*
X93000Y76701D02*
D03*
Y39299D02*
D03*
D38*
X121244Y49968D02*
D03*
X126756D02*
D03*
D39*
X60000Y10000D02*
D03*
X100000D02*
D03*
X80000D02*
D03*
X40000D02*
D03*
M02*
