G04*
G04 #@! TF.GenerationSoftware,Altium Limited,Altium Designer,19.0.10 (269)*
G04*
G04 Layer_Physical_Order=2*
G04 Layer_Color=36540*
%FSLAX25Y25*%
%MOIN*%
G70*
G01*
G75*
%ADD44C,0.04362*%
%ADD46C,0.02000*%
G36*
X132471Y138145D02*
X134012Y137507D01*
X135400Y136580D01*
X136580Y135400D01*
X137507Y134012D01*
X138145Y132471D01*
X138471Y130834D01*
Y130000D01*
Y10000D01*
Y9166D01*
X138145Y7529D01*
X137507Y5988D01*
X136580Y4600D01*
X135400Y3420D01*
X134012Y2493D01*
X132471Y1855D01*
X130834Y1529D01*
X20000D01*
X20000Y40439D01*
X32000Y52439D01*
X32000Y95561D01*
X24000Y103561D01*
X1529D01*
Y130000D01*
Y130834D01*
X1855Y132471D01*
X2493Y134012D01*
X3420Y135400D01*
X4600Y136580D01*
X5988Y137507D01*
X7529Y138145D01*
X9166Y138471D01*
X130834D01*
X132471Y138145D01*
D02*
G37*
%LPC*%
G36*
X69000Y124239D02*
X68220Y124084D01*
X67558Y123642D01*
X67116Y122980D01*
X66961Y122200D01*
X67116Y121419D01*
X67558Y120758D01*
X68220Y120316D01*
X69000Y120160D01*
X69780Y120316D01*
X70442Y120758D01*
X70884Y121419D01*
X71039Y122200D01*
X70884Y122980D01*
X70442Y123642D01*
X69780Y124084D01*
X69000Y124239D01*
D02*
G37*
G36*
X64000Y123039D02*
X63220Y122884D01*
X62558Y122442D01*
X62116Y121780D01*
X61961Y121000D01*
X62116Y120220D01*
X62558Y119558D01*
X63220Y119116D01*
X64000Y118961D01*
X64780Y119116D01*
X65442Y119558D01*
X65884Y120220D01*
X66039Y121000D01*
X65884Y121780D01*
X65442Y122442D01*
X64780Y122884D01*
X64000Y123039D01*
D02*
G37*
G36*
X108000Y122039D02*
X107220Y121884D01*
X106558Y121442D01*
X106116Y120780D01*
X105961Y120000D01*
X106116Y119220D01*
X106558Y118558D01*
X107220Y118116D01*
X108000Y117961D01*
X108780Y118116D01*
X109442Y118558D01*
X109884Y119220D01*
X110039Y120000D01*
X109884Y120780D01*
X109442Y121442D01*
X108780Y121884D01*
X108000Y122039D01*
D02*
G37*
G36*
X30000D02*
X29220Y121884D01*
X28558Y121442D01*
X28116Y120780D01*
X27961Y120000D01*
X28116Y119220D01*
X28558Y118558D01*
X29220Y118116D01*
X30000Y117961D01*
X30780Y118116D01*
X31442Y118558D01*
X31884Y119220D01*
X32039Y120000D01*
X31884Y120780D01*
X31442Y121442D01*
X30780Y121884D01*
X30000Y122039D01*
D02*
G37*
G36*
X78000Y121039D02*
X77220Y120884D01*
X76558Y120442D01*
X76116Y119780D01*
X75961Y119000D01*
X76116Y118220D01*
X76558Y117558D01*
X77220Y117116D01*
X78000Y116961D01*
X78780Y117116D01*
X79442Y117558D01*
X79884Y118220D01*
X80039Y119000D01*
X79884Y119780D01*
X79442Y120442D01*
X78780Y120884D01*
X78000Y121039D01*
D02*
G37*
G36*
X48000Y118039D02*
X47220Y117884D01*
X46558Y117442D01*
X46116Y116780D01*
X45961Y116000D01*
X46116Y115220D01*
X46558Y114558D01*
X47220Y114116D01*
X48000Y113961D01*
X48780Y114116D01*
X49442Y114558D01*
X49884Y115220D01*
X50039Y116000D01*
X49884Y116780D01*
X49442Y117442D01*
X48780Y117884D01*
X48000Y118039D01*
D02*
G37*
G36*
X91000Y117039D02*
X90220Y116884D01*
X89558Y116442D01*
X89116Y115780D01*
X88961Y115000D01*
X89116Y114220D01*
X89558Y113558D01*
X90220Y113116D01*
X91000Y112961D01*
X91780Y113116D01*
X92442Y113558D01*
X92884Y114220D01*
X93039Y115000D01*
X92884Y115780D01*
X92442Y116442D01*
X91780Y116884D01*
X91000Y117039D01*
D02*
G37*
G36*
X54000Y106039D02*
X53220Y105884D01*
X52558Y105442D01*
X52116Y104780D01*
X51961Y104000D01*
X52116Y103220D01*
X52558Y102558D01*
X53220Y102116D01*
X54000Y101961D01*
X54780Y102116D01*
X55442Y102558D01*
X55884Y103220D01*
X56039Y104000D01*
X55884Y104780D01*
X55442Y105442D01*
X54780Y105884D01*
X54000Y106039D01*
D02*
G37*
G36*
X48000Y102551D02*
X47220Y102396D01*
X46558Y101954D01*
X46116Y101292D01*
X45961Y100512D01*
X46116Y99731D01*
X46558Y99070D01*
X47220Y98628D01*
X48000Y98473D01*
X48780Y98628D01*
X49442Y99070D01*
X49884Y99731D01*
X50039Y100512D01*
X49884Y101292D01*
X49442Y101954D01*
X48780Y102396D01*
X48000Y102551D01*
D02*
G37*
G36*
X104488Y102039D02*
X103708Y101884D01*
X103046Y101442D01*
X102604Y100780D01*
X102449Y100000D01*
X102604Y99220D01*
X103046Y98558D01*
X103708Y98116D01*
X104488Y97961D01*
X105269Y98116D01*
X105930Y98558D01*
X106372Y99220D01*
X106527Y100000D01*
X106372Y100780D01*
X105930Y101442D01*
X105269Y101884D01*
X104488Y102039D01*
D02*
G37*
G36*
X54000Y100039D02*
X53220Y99884D01*
X52558Y99442D01*
X52116Y98780D01*
X51961Y98000D01*
X52116Y97220D01*
X52558Y96558D01*
X53220Y96116D01*
X54000Y95961D01*
X54780Y96116D01*
X55442Y96558D01*
X55884Y97220D01*
X56039Y98000D01*
X55884Y98780D01*
X55442Y99442D01*
X54780Y99884D01*
X54000Y100039D01*
D02*
G37*
G36*
X53000Y79039D02*
X52220Y78884D01*
X51558Y78442D01*
X51116Y77780D01*
X50961Y77000D01*
X51116Y76220D01*
X51558Y75558D01*
X52220Y75116D01*
X53000Y74961D01*
X53780Y75116D01*
X54442Y75558D01*
X54884Y76220D01*
X54998Y76796D01*
X55488Y76701D01*
X55541Y76436D01*
X55644Y75920D01*
X56086Y75259D01*
X56747Y74817D01*
X57528Y74662D01*
X58308Y74817D01*
X58969Y75259D01*
X59412Y75920D01*
X59567Y76701D01*
X59412Y77481D01*
X58969Y78143D01*
X58308Y78585D01*
X57528Y78740D01*
X56747Y78585D01*
X56086Y78143D01*
X55644Y77481D01*
X55529Y76905D01*
X55039Y77000D01*
X54987Y77265D01*
X54884Y77780D01*
X54442Y78442D01*
X53780Y78884D01*
X53000Y79039D01*
D02*
G37*
G36*
X74000Y77039D02*
X73220Y76884D01*
X72558Y76442D01*
X72116Y75780D01*
X71961Y75000D01*
X72116Y74220D01*
X72558Y73558D01*
X73220Y73116D01*
X74000Y72961D01*
X74780Y73116D01*
X75442Y73558D01*
X75884Y74220D01*
X76039Y75000D01*
X75884Y75780D01*
X75442Y76442D01*
X74780Y76884D01*
X74000Y77039D01*
D02*
G37*
G36*
X78000Y74039D02*
X77220Y73884D01*
X76558Y73442D01*
X76116Y72780D01*
X75961Y72000D01*
X76116Y71220D01*
X76558Y70558D01*
X77220Y70116D01*
X78000Y69961D01*
X78780Y70116D01*
X79442Y70558D01*
X79884Y71220D01*
X80039Y72000D01*
X79884Y72780D01*
X79442Y73442D01*
X78780Y73884D01*
X78000Y74039D01*
D02*
G37*
G36*
X126150Y70039D02*
X125369Y69884D01*
X124708Y69442D01*
X124266Y68780D01*
X124110Y68000D01*
X124266Y67220D01*
X124708Y66558D01*
X125369Y66116D01*
X126150Y65961D01*
X126930Y66116D01*
X127592Y66558D01*
X128034Y67220D01*
X128189Y68000D01*
X128034Y68780D01*
X127592Y69442D01*
X126930Y69884D01*
X126150Y70039D01*
D02*
G37*
G36*
X115000Y62039D02*
X114220Y61884D01*
X113558Y61442D01*
X113116Y60780D01*
X112961Y60000D01*
X113116Y59220D01*
X113558Y58558D01*
X114220Y58116D01*
X115000Y57961D01*
X115780Y58116D01*
X116442Y58558D01*
X116884Y59220D01*
X117039Y60000D01*
X116884Y60780D01*
X116442Y61442D01*
X115780Y61884D01*
X115000Y62039D01*
D02*
G37*
G36*
X126756Y53177D02*
X125926Y53068D01*
X125152Y52747D01*
X124487Y52237D01*
X124250Y51928D01*
X123750D01*
X123513Y52237D01*
X122848Y52747D01*
X122074Y53068D01*
X121744Y53111D01*
Y49968D01*
Y46826D01*
X122074Y46869D01*
X122848Y47190D01*
X123513Y47700D01*
X123750Y48009D01*
X124250D01*
X124487Y47700D01*
X125152Y47190D01*
X125926Y46869D01*
X126756Y46760D01*
X127586Y46869D01*
X128360Y47190D01*
X129025Y47700D01*
X129535Y48364D01*
X129855Y49138D01*
X129964Y49968D01*
X129855Y50799D01*
X129535Y51573D01*
X129025Y52237D01*
X128360Y52747D01*
X127586Y53068D01*
X126756Y53177D01*
D02*
G37*
G36*
X120744Y53111D02*
X120414Y53068D01*
X119640Y52747D01*
X118975Y52237D01*
X118465Y51573D01*
X118145Y50799D01*
X118101Y50468D01*
X120744D01*
Y53111D01*
D02*
G37*
G36*
X63000Y54039D02*
X62220Y53884D01*
X61558Y53442D01*
X61116Y52780D01*
X60961Y52000D01*
X61116Y51220D01*
X61558Y50558D01*
X62220Y50116D01*
X63000Y49961D01*
X63780Y50116D01*
X64442Y50558D01*
X64884Y51220D01*
X65039Y52000D01*
X64884Y52780D01*
X64442Y53442D01*
X63780Y53884D01*
X63000Y54039D01*
D02*
G37*
G36*
X120744Y49468D02*
X118101D01*
X118145Y49138D01*
X118465Y48364D01*
X118975Y47700D01*
X119640Y47190D01*
X120414Y46869D01*
X120744Y46826D01*
Y49468D01*
D02*
G37*
G36*
X113000Y43039D02*
X112220Y42884D01*
X111558Y42442D01*
X111116Y41780D01*
X110961Y41000D01*
X111116Y40220D01*
X111558Y39558D01*
X112220Y39116D01*
X113000Y38961D01*
X113780Y39116D01*
X114442Y39558D01*
X114884Y40220D01*
X115039Y41000D01*
X114884Y41780D01*
X114442Y42442D01*
X113780Y42884D01*
X113000Y43039D01*
D02*
G37*
G36*
X132000Y42039D02*
X131220Y41884D01*
X130558Y41442D01*
X130116Y40780D01*
X129961Y40000D01*
X130116Y39220D01*
X130558Y38558D01*
X131220Y38116D01*
X132000Y37961D01*
X132780Y38116D01*
X133442Y38558D01*
X133884Y39220D01*
X134039Y40000D01*
X133884Y40780D01*
X133442Y41442D01*
X132780Y41884D01*
X132000Y42039D01*
D02*
G37*
G36*
X86000Y30039D02*
X85220Y29884D01*
X84558Y29442D01*
X84116Y28780D01*
X83961Y28000D01*
X84116Y27220D01*
X84558Y26558D01*
X85220Y26116D01*
X86000Y25961D01*
X86780Y26116D01*
X87442Y26558D01*
X87884Y27220D01*
X88039Y28000D01*
X87884Y28780D01*
X87442Y29442D01*
X86780Y29884D01*
X86000Y30039D01*
D02*
G37*
G36*
X54000D02*
X53220Y29884D01*
X52558Y29442D01*
X52116Y28780D01*
X51961Y28000D01*
X52116Y27220D01*
X52558Y26558D01*
X53220Y26116D01*
X54000Y25961D01*
X54780Y26116D01*
X55442Y26558D01*
X55884Y27220D01*
X56039Y28000D01*
X55884Y28780D01*
X55442Y29442D01*
X54780Y29884D01*
X54000Y30039D01*
D02*
G37*
G36*
X133000Y24039D02*
X132220Y23884D01*
X131558Y23442D01*
X131116Y22780D01*
X130961Y22000D01*
X131116Y21220D01*
X131558Y20558D01*
X132220Y20116D01*
X133000Y19961D01*
X133780Y20116D01*
X134442Y20558D01*
X134884Y21220D01*
X135039Y22000D01*
X134884Y22780D01*
X134442Y23442D01*
X133780Y23884D01*
X133000Y24039D01*
D02*
G37*
G36*
X100000Y15377D02*
X98608Y15193D01*
X97312Y14656D01*
X96198Y13802D01*
X95344Y12688D01*
X94806Y11392D01*
X94623Y10000D01*
X94806Y8608D01*
X95344Y7312D01*
X96198Y6198D01*
X97312Y5344D01*
X98608Y4806D01*
X100000Y4623D01*
X101392Y4806D01*
X102688Y5344D01*
X103802Y6198D01*
X104656Y7312D01*
X105193Y8608D01*
X105377Y10000D01*
X105193Y11392D01*
X104656Y12688D01*
X103802Y13802D01*
X102688Y14656D01*
X101392Y15193D01*
X100000Y15377D01*
D02*
G37*
G36*
X80000D02*
X78608Y15193D01*
X77312Y14656D01*
X76198Y13802D01*
X75344Y12688D01*
X74806Y11392D01*
X74623Y10000D01*
X74806Y8608D01*
X75344Y7312D01*
X76198Y6198D01*
X77312Y5344D01*
X78608Y4806D01*
X80000Y4623D01*
X81392Y4806D01*
X82688Y5344D01*
X83802Y6198D01*
X84656Y7312D01*
X85194Y8608D01*
X85377Y10000D01*
X85194Y11392D01*
X84656Y12688D01*
X83802Y13802D01*
X82688Y14656D01*
X81392Y15193D01*
X80000Y15377D01*
D02*
G37*
G36*
X60000D02*
X58608Y15193D01*
X57312Y14656D01*
X56198Y13802D01*
X55344Y12688D01*
X54807Y11392D01*
X54623Y10000D01*
X54807Y8608D01*
X55344Y7312D01*
X56198Y6198D01*
X57312Y5344D01*
X58608Y4806D01*
X60000Y4623D01*
X61392Y4806D01*
X62688Y5344D01*
X63802Y6198D01*
X64656Y7312D01*
X65193Y8608D01*
X65377Y10000D01*
X65193Y11392D01*
X64656Y12688D01*
X63802Y13802D01*
X62688Y14656D01*
X61392Y15193D01*
X60000Y15377D01*
D02*
G37*
G36*
X40000D02*
X38608Y15193D01*
X37312Y14656D01*
X36198Y13802D01*
X35344Y12688D01*
X34806Y11392D01*
X34623Y10000D01*
X34806Y8608D01*
X35344Y7312D01*
X36198Y6198D01*
X37312Y5344D01*
X38608Y4806D01*
X40000Y4623D01*
X41392Y4806D01*
X42688Y5344D01*
X43802Y6198D01*
X44656Y7312D01*
X45193Y8608D01*
X45377Y10000D01*
X45193Y11392D01*
X44656Y12688D01*
X43802Y13802D01*
X42688Y14656D01*
X41392Y15193D01*
X40000Y15377D01*
D02*
G37*
%LPD*%
D44*
X121244Y49968D02*
D03*
D46*
X33685Y97079D02*
D03*
Y87120D02*
D03*
Y76710D02*
D03*
X33884Y65859D02*
D03*
X34000Y55712D02*
D03*
X24000Y41859D02*
D03*
Y32250D02*
D03*
X32243Y32391D02*
D03*
X32000Y43000D02*
D03*
X119929Y77000D02*
D03*
X54000Y72000D02*
D03*
X39000Y34000D02*
D03*
X89000Y98000D02*
D03*
X113000Y24000D02*
D03*
X84000Y16000D02*
D03*
X49000Y18000D02*
D03*
X89000Y109000D02*
D03*
X83476Y70000D02*
D03*
X106000Y129000D02*
D03*
X34000Y128858D02*
D03*
M02*
