G04*
G04 #@! TF.GenerationSoftware,Altium Limited,Altium Designer,19.0.10 (269)*
G04*
G04 Layer_Color=128*
%FSLAX25Y25*%
%MOIN*%
G70*
G01*
G75*
%ADD19R,0.03937X0.03543*%
%ADD20R,0.03937X0.03937*%
%ADD21R,0.03937X0.03937*%
%ADD22R,0.03543X0.03937*%
%ADD47R,0.05315X0.04724*%
%ADD48R,0.05315X0.04528*%
%ADD49R,0.04528X0.05315*%
G04:AMPARAMS|DCode=51|XSize=39.37mil|YSize=118.11mil|CornerRadius=9.84mil|HoleSize=0mil|Usage=FLASHONLY|Rotation=180.000|XOffset=0mil|YOffset=0mil|HoleType=Round|Shape=RoundedRectangle|*
%AMROUNDEDRECTD51*
21,1,0.03937,0.09843,0,0,180.0*
21,1,0.01968,0.11811,0,0,180.0*
1,1,0.01968,-0.00984,0.04921*
1,1,0.01968,0.00984,0.04921*
1,1,0.01968,0.00984,-0.04921*
1,1,0.01968,-0.00984,-0.04921*
%
%ADD51ROUNDEDRECTD51*%
G04:AMPARAMS|DCode=52|XSize=78.74mil|YSize=177.17mil|CornerRadius=19.68mil|HoleSize=0mil|Usage=FLASHONLY|Rotation=180.000|XOffset=0mil|YOffset=0mil|HoleType=Round|Shape=RoundedRectangle|*
%AMROUNDEDRECTD52*
21,1,0.07874,0.13780,0,0,180.0*
21,1,0.03937,0.17717,0,0,180.0*
1,1,0.03937,-0.01968,0.06890*
1,1,0.03937,0.01968,0.06890*
1,1,0.03937,0.01968,-0.06890*
1,1,0.03937,-0.01968,-0.06890*
%
%ADD52ROUNDEDRECTD52*%
%ADD53R,0.03740X0.11024*%
%ADD54O,0.03740X0.11024*%
%ADD55R,0.04134X0.02165*%
D19*
X127347Y22346D02*
D03*
Y15654D02*
D03*
D20*
X82000Y106850D02*
D03*
Y113150D02*
D03*
X113000Y35890D02*
D03*
Y29591D02*
D03*
X120653Y15850D02*
D03*
Y22150D02*
D03*
D21*
X127150Y43000D02*
D03*
X120850D02*
D03*
D22*
X35000Y120000D02*
D03*
X41693D02*
D03*
X103347D02*
D03*
X96653D02*
D03*
X126347Y57000D02*
D03*
X119653D02*
D03*
X119653Y63000D02*
D03*
X126347D02*
D03*
D47*
X62000Y113740D02*
D03*
Y106260D02*
D03*
D48*
X72000Y106358D02*
D03*
Y113642D02*
D03*
D49*
X56221Y22346D02*
D03*
X48937D02*
D03*
X90000Y22150D02*
D03*
X82717D02*
D03*
D51*
X83780Y85500D02*
D03*
X73937D02*
D03*
X66063D02*
D03*
X56221D02*
D03*
D52*
X45984Y86484D02*
D03*
X94016D02*
D03*
D53*
X44252Y63000D02*
D03*
X78031D02*
D03*
D54*
X50236D02*
D03*
X56221D02*
D03*
X62205D02*
D03*
X44252Y36228D02*
D03*
X50236D02*
D03*
X56221D02*
D03*
X62205D02*
D03*
X95984D02*
D03*
X90000D02*
D03*
X84016D02*
D03*
X78031D02*
D03*
X95984Y63000D02*
D03*
X90000D02*
D03*
X84016D02*
D03*
D55*
X128000Y36480D02*
D03*
Y32740D02*
D03*
Y29000D02*
D03*
X119929D02*
D03*
Y36480D02*
D03*
M02*
