G04*
G04 #@! TF.GenerationSoftware,Altium Limited,Altium Designer,19.0.10 (269)*
G04*
G04 Layer_Physical_Order=1*
G04 Layer_Color=255*
%FSLAX25Y25*%
%MOIN*%
G70*
G01*
G75*
%ADD19R,0.03937X0.03543*%
%ADD20R,0.03937X0.03937*%
%ADD21R,0.03937X0.03937*%
%ADD22R,0.03543X0.03937*%
%ADD23R,0.01772X0.06890*%
%ADD24O,0.08268X0.02362*%
%ADD25R,0.07087X0.06299*%
%ADD26R,0.10000X0.04000*%
%ADD27R,0.08268X0.22047*%
%ADD40C,0.01300*%
%ADD41R,0.03150X0.03150*%
%ADD42C,0.01500*%
%ADD43C,0.02000*%
%ADD44C,0.04362*%
%ADD45C,0.08661*%
%ADD46C,0.02000*%
G36*
X132471Y138145D02*
X134012Y137507D01*
X135400Y136580D01*
X136580Y135400D01*
X137507Y134012D01*
X138145Y132471D01*
X138471Y130834D01*
Y130000D01*
Y10000D01*
Y9166D01*
X138145Y7529D01*
X137507Y5988D01*
X136580Y4600D01*
X135400Y3420D01*
X134012Y2493D01*
X132471Y1855D01*
X130834Y1529D01*
X20000D01*
X20000Y35318D01*
X29000D01*
Y35314D01*
X30828Y35458D01*
X32611Y35886D01*
X34305Y36588D01*
X35869Y37546D01*
X37263Y38737D01*
X38454Y40131D01*
X39412Y41695D01*
X40114Y43389D01*
X40542Y45172D01*
X40598Y45882D01*
X41969D01*
Y51681D01*
X41969Y51819D01*
Y52181D01*
X41969Y52319D01*
Y58118D01*
X41336D01*
Y59031D01*
X42425D01*
Y64969D01*
X41336D01*
Y66031D01*
X42425D01*
Y71969D01*
X36882D01*
Y66031D01*
X37971D01*
Y64969D01*
X36882D01*
Y59031D01*
X37971D01*
Y58118D01*
X36031D01*
Y52319D01*
X36031Y52181D01*
Y51819D01*
X36031Y51681D01*
Y45882D01*
X36858D01*
X37194Y45511D01*
X37180Y45373D01*
X36705Y43808D01*
X35935Y42366D01*
X34897Y41103D01*
X33634Y40065D01*
X32192Y39295D01*
X30627Y38820D01*
X29076Y38667D01*
X29000Y38682D01*
X20000D01*
Y40879D01*
X32000Y52879D01*
X32000Y96000D01*
X24000Y104000D01*
X1529D01*
Y130000D01*
Y130834D01*
X1855Y132471D01*
X2493Y134012D01*
X3420Y135400D01*
X4600Y136580D01*
X5988Y137507D01*
X7529Y138145D01*
X9166Y138471D01*
X57441D01*
X57593Y138143D01*
X57613Y137971D01*
X46791Y127149D01*
X46572Y127182D01*
X46291Y127327D01*
Y128358D01*
X42248D01*
Y124709D01*
X46216D01*
Y116929D01*
X46116Y116780D01*
X46081Y116604D01*
X44802Y115326D01*
X44148D01*
X43975Y115291D01*
X37205D01*
Y112926D01*
X14795D01*
Y115291D01*
X5709D01*
Y106992D01*
X14795D01*
Y109357D01*
X37205D01*
Y106992D01*
X46291D01*
Y111938D01*
X46803Y112280D01*
X48604Y114081D01*
X48780Y114116D01*
X49442Y114558D01*
X49884Y115220D01*
X50039Y116000D01*
X49884Y116780D01*
X49784Y116929D01*
Y125095D01*
X59655Y134966D01*
X78511D01*
X79712Y133765D01*
X79520Y133303D01*
X62028D01*
Y128858D01*
Y124413D01*
X62302D01*
Y122059D01*
X62116Y121780D01*
X61961Y121000D01*
X62116Y120220D01*
X62558Y119558D01*
X63220Y119116D01*
X64000Y118961D01*
X64780Y119116D01*
X65442Y119558D01*
X65884Y120220D01*
X66039Y121000D01*
X65884Y121780D01*
X65871Y121800D01*
Y122352D01*
X66333Y122543D01*
X67031Y121845D01*
X67116Y121419D01*
X67558Y120758D01*
X68220Y120316D01*
X69000Y120160D01*
X69780Y120316D01*
X70442Y120758D01*
X70884Y121419D01*
X71039Y122200D01*
X70884Y122980D01*
X70442Y123642D01*
X70035Y123913D01*
X70057Y124207D01*
X70143Y124413D01*
X77994D01*
Y124222D01*
X78123Y123579D01*
X78487Y123033D01*
X84318Y117202D01*
Y108000D01*
X84446Y107356D01*
X84810Y106810D01*
X86164Y105457D01*
X85957Y104957D01*
X70989D01*
Y109466D01*
X78604Y117081D01*
X78780Y117116D01*
X79442Y117558D01*
X79884Y118220D01*
X80039Y119000D01*
X79884Y119780D01*
X79442Y120442D01*
X78780Y120884D01*
X78000Y121039D01*
X77220Y120884D01*
X76558Y120442D01*
X76116Y119780D01*
X76081Y119604D01*
X67943Y111466D01*
X67556Y110888D01*
X67421Y110205D01*
Y104957D01*
X63312D01*
Y106472D01*
X63176Y107155D01*
X62789Y107734D01*
X62789Y107734D01*
X57630Y112894D01*
X57051Y113280D01*
X56968Y113297D01*
Y115681D01*
X56968Y115819D01*
Y116181D01*
X56968Y116319D01*
Y118650D01*
X54000D01*
X51032D01*
Y116319D01*
X51032Y116181D01*
Y115819D01*
X51032Y115681D01*
Y109882D01*
X55046D01*
X55218Y109848D01*
X55629D01*
X59230Y106246D01*
X59039Y105784D01*
X54930D01*
X54780Y105884D01*
X54000Y106039D01*
X53220Y105884D01*
X52558Y105442D01*
X52116Y104780D01*
X51961Y104000D01*
X52116Y103220D01*
X52558Y102558D01*
X53220Y102116D01*
X54000Y101961D01*
X54780Y102116D01*
X54930Y102216D01*
X59642D01*
Y96067D01*
X59259Y95784D01*
X58850D01*
X58168Y95648D01*
X57589Y95262D01*
X57589Y95262D01*
X53445Y91118D01*
X50032D01*
Y85575D01*
X55968D01*
Y88595D01*
X58059Y90685D01*
X58559Y90478D01*
Y85575D01*
X64496D01*
Y88792D01*
X65566Y89862D01*
X69528D01*
Y85575D01*
X75465D01*
Y88595D01*
X77672Y90802D01*
X78170Y90753D01*
X78179Y90738D01*
X78694Y90224D01*
Y89368D01*
X78728Y89196D01*
Y85575D01*
X84665D01*
Y91118D01*
X82231D01*
X82126Y91646D01*
X81847Y92065D01*
X82207Y92425D01*
X82317Y92352D01*
X83000Y92216D01*
X96261D01*
X101216Y87261D01*
Y59739D01*
X100011Y58534D01*
X88782D01*
X88781Y58534D01*
X88099Y58398D01*
X87520Y58012D01*
X87520Y58012D01*
X80957Y51449D01*
X79509D01*
X79351Y51555D01*
X78500Y51724D01*
X72594D01*
X71744Y51555D01*
X71022Y51073D01*
X70540Y50351D01*
X70371Y49500D01*
X70540Y48649D01*
X71022Y47927D01*
X71744Y47445D01*
X72594Y47276D01*
X78500D01*
X79351Y47445D01*
X80002Y47881D01*
X81696D01*
X82379Y48017D01*
X82958Y48403D01*
X89521Y54966D01*
X100750D01*
X101433Y55102D01*
X102012Y55488D01*
X104262Y57738D01*
X104648Y58317D01*
X104784Y59000D01*
Y88000D01*
X104648Y88683D01*
X104262Y89262D01*
X98262Y95262D01*
X97683Y95648D01*
X97000Y95784D01*
X86828D01*
X86445Y96067D01*
Y98966D01*
X102774D01*
X103046Y98558D01*
X103708Y98116D01*
X104488Y97961D01*
X105269Y98116D01*
X105930Y98558D01*
X106296Y99106D01*
X106851Y99258D01*
X110318Y95791D01*
Y91986D01*
X109031D01*
Y86187D01*
X109031Y86049D01*
Y85687D01*
X109031Y85549D01*
Y83218D01*
X112000D01*
X114969D01*
Y85549D01*
X114969Y85687D01*
Y86049D01*
X114969Y86187D01*
Y87532D01*
X117032D01*
Y86443D01*
X122968D01*
Y87591D01*
X125425D01*
Y86699D01*
X130575D01*
Y91848D01*
X125425D01*
Y90956D01*
X122968D01*
Y91986D01*
X117032D01*
Y90897D01*
X114969D01*
Y91986D01*
X113682D01*
Y96488D01*
X113554Y97132D01*
X113190Y97678D01*
X113190Y97678D01*
X105678Y105190D01*
X105132Y105554D01*
X104488Y105682D01*
X90697D01*
X87682Y108697D01*
Y117240D01*
X88144Y117431D01*
X88836Y116739D01*
Y115380D01*
X88972Y114697D01*
X89042Y114592D01*
X89116Y114220D01*
X89558Y113558D01*
X90220Y113116D01*
X90565Y113047D01*
X91332Y112280D01*
X91332Y112280D01*
X91911Y111893D01*
X92594Y111757D01*
X92594Y111757D01*
X93709D01*
Y106992D01*
X102795D01*
Y109357D01*
X125205D01*
Y106992D01*
X134291D01*
Y115291D01*
X125205D01*
Y112926D01*
X102795D01*
Y115291D01*
X96025D01*
X95852Y115326D01*
X93333D01*
X92885Y115773D01*
X92884Y115780D01*
X92442Y116442D01*
X92405Y116467D01*
Y117479D01*
X92269Y118161D01*
X91882Y118740D01*
X86631Y123991D01*
X86445Y124413D01*
Y133303D01*
X83784D01*
Y134000D01*
X83784Y134000D01*
X83649Y134683D01*
X83262Y135262D01*
X83262Y135262D01*
X80553Y137971D01*
X80573Y138143D01*
X80725Y138471D01*
X130834D01*
X132471Y138145D01*
D02*
G37*
%LPC*%
G36*
X134291Y133008D02*
X130248D01*
Y129358D01*
X134291D01*
Y133008D01*
D02*
G37*
G36*
X46291D02*
X42248D01*
Y129358D01*
X46291D01*
Y133008D01*
D02*
G37*
G36*
X14795D02*
X10752D01*
Y129358D01*
X14795D01*
Y133008D01*
D02*
G37*
G36*
X102795D02*
X98752D01*
Y129358D01*
X102795D01*
Y133008D01*
D02*
G37*
G36*
X61028Y133303D02*
X59642D01*
Y129358D01*
X61028D01*
Y133303D01*
D02*
G37*
G36*
X97752Y133008D02*
X93709D01*
Y129358D01*
X97752D01*
Y133008D01*
D02*
G37*
G36*
X41248D02*
X37205D01*
Y129358D01*
X41248D01*
Y133008D01*
D02*
G37*
G36*
X9752D02*
X5709D01*
Y129358D01*
X9752D01*
Y133008D01*
D02*
G37*
G36*
X129248D02*
X125205D01*
Y129358D01*
X129248D01*
Y133008D01*
D02*
G37*
G36*
X134291Y128358D02*
X130248D01*
Y124709D01*
X134291D01*
Y128358D01*
D02*
G37*
G36*
X129248D02*
X125205D01*
Y124709D01*
X129248D01*
Y128358D01*
D02*
G37*
G36*
X102795D02*
X98752D01*
Y124709D01*
X102795D01*
Y128358D01*
D02*
G37*
G36*
X97752D02*
X93709D01*
Y124709D01*
X97752D01*
Y128358D01*
D02*
G37*
G36*
X41248D02*
X37205D01*
Y124709D01*
X41248D01*
Y128358D01*
D02*
G37*
G36*
X14795D02*
X10752D01*
Y124709D01*
X14795D01*
Y128358D01*
D02*
G37*
G36*
X9752D02*
X5709D01*
Y124709D01*
X9752D01*
Y128358D01*
D02*
G37*
G36*
X61028D02*
X59642D01*
Y124413D01*
X61028D01*
Y128358D01*
D02*
G37*
G36*
X56968Y122118D02*
X54500D01*
Y119650D01*
X56968D01*
Y122118D01*
D02*
G37*
G36*
X53500D02*
X51032D01*
Y119650D01*
X53500D01*
Y122118D01*
D02*
G37*
G36*
X108000Y122039D02*
X107220Y121884D01*
X106558Y121442D01*
X106116Y120780D01*
X105961Y120000D01*
X106116Y119220D01*
X106558Y118558D01*
X107220Y118116D01*
X108000Y117961D01*
X108780Y118116D01*
X109442Y118558D01*
X109884Y119220D01*
X110039Y120000D01*
X109884Y120780D01*
X109442Y121442D01*
X108780Y121884D01*
X108000Y122039D01*
D02*
G37*
G36*
X30000D02*
X29220Y121884D01*
X28558Y121442D01*
X28116Y120780D01*
X27961Y120000D01*
X28116Y119220D01*
X28558Y118558D01*
X29220Y118116D01*
X30000Y117961D01*
X30780Y118116D01*
X31442Y118558D01*
X31884Y119220D01*
X32039Y120000D01*
X31884Y120780D01*
X31442Y121442D01*
X30780Y121884D01*
X30000Y122039D01*
D02*
G37*
G36*
X48000Y102551D02*
X47220Y102396D01*
X46558Y101954D01*
X46116Y101292D01*
X45961Y100512D01*
X46116Y99731D01*
X46558Y99070D01*
X47220Y98628D01*
X48000Y98473D01*
X48780Y98628D01*
X49442Y99070D01*
X49884Y99731D01*
X50039Y100512D01*
X49884Y101292D01*
X49442Y101954D01*
X48780Y102396D01*
X48000Y102551D01*
D02*
G37*
G36*
X54000Y100039D02*
X53220Y99884D01*
X52558Y99442D01*
X52116Y98780D01*
X51961Y98000D01*
X52116Y97220D01*
X52558Y96558D01*
X53220Y96116D01*
X54000Y95961D01*
X54780Y96116D01*
X55442Y96558D01*
X55884Y97220D01*
X56039Y98000D01*
X55884Y98780D01*
X55442Y99442D01*
X54780Y99884D01*
X54000Y100039D01*
D02*
G37*
G36*
X122968Y85293D02*
X120500D01*
Y83022D01*
X122968D01*
Y85293D01*
D02*
G37*
G36*
X119500D02*
X117032D01*
Y83022D01*
X119500D01*
Y85293D01*
D02*
G37*
G36*
X114969Y82218D02*
X112500D01*
Y79750D01*
X114969D01*
Y82218D01*
D02*
G37*
G36*
X111500D02*
X109031D01*
Y79750D01*
X111500D01*
Y82218D01*
D02*
G37*
G36*
X122968Y82022D02*
X120500D01*
Y79750D01*
X122968D01*
Y82022D01*
D02*
G37*
G36*
X119500D02*
X117032D01*
Y79750D01*
X119500D01*
Y82022D01*
D02*
G37*
G36*
X64496Y84425D02*
X58559D01*
Y79006D01*
X58515Y78931D01*
X58171Y78612D01*
X57528Y78740D01*
X56747Y78585D01*
X56086Y78143D01*
X55644Y77481D01*
X55529Y76905D01*
X55039Y77000D01*
X54987Y77265D01*
X54884Y77780D01*
X54784Y77930D01*
Y78882D01*
X55968D01*
Y84425D01*
X50032D01*
Y78882D01*
X51216D01*
Y77930D01*
X51116Y77780D01*
X50961Y77000D01*
X51116Y76220D01*
X51558Y75558D01*
X52220Y75116D01*
X53000Y74961D01*
X53780Y75116D01*
X54442Y75558D01*
X54884Y76220D01*
X54998Y76796D01*
X55488Y76701D01*
X55541Y76436D01*
X55644Y75920D01*
X56086Y75259D01*
X56747Y74817D01*
X57528Y74662D01*
X57882Y74371D01*
Y72500D01*
X60350D01*
Y75413D01*
X60346Y75468D01*
X62732Y77855D01*
X62732Y77855D01*
X63119Y78434D01*
X63208Y78882D01*
X64496D01*
Y84425D01*
D02*
G37*
G36*
X84665D02*
X78728D01*
Y80102D01*
X76738Y78112D01*
X76351Y77533D01*
X76284Y77195D01*
X75784Y77244D01*
Y78496D01*
X75784Y78496D01*
X75648Y79179D01*
X75465Y79454D01*
Y84425D01*
X69528D01*
Y78882D01*
X71139D01*
X71235Y78738D01*
X72216Y77757D01*
Y75929D01*
X72116Y75780D01*
X71961Y75000D01*
X72116Y74220D01*
X72558Y73558D01*
X73220Y73116D01*
X74000Y72961D01*
X74780Y73116D01*
X75442Y73558D01*
X75716Y73968D01*
X76216Y73816D01*
Y72930D01*
X76116Y72780D01*
X75961Y72000D01*
X76116Y71220D01*
X76558Y70558D01*
X77220Y70116D01*
X78000Y69961D01*
X78780Y70116D01*
X79442Y70558D01*
X79884Y71220D01*
X80039Y72000D01*
X79884Y72780D01*
X79784Y72930D01*
Y76111D01*
X82555Y78882D01*
X84665D01*
Y81054D01*
X84784Y81653D01*
X84665Y82253D01*
Y84425D01*
D02*
G37*
G36*
X49118Y71969D02*
X46847D01*
Y69500D01*
X49118D01*
Y71969D01*
D02*
G37*
G36*
X45847D02*
X43575D01*
Y69500D01*
X45847D01*
Y71969D01*
D02*
G37*
G36*
X60350Y71500D02*
X57882D01*
Y69032D01*
X60350D01*
Y71500D01*
D02*
G37*
G36*
X98134Y88724D02*
X87866D01*
Y67561D01*
X86844Y66539D01*
X79374D01*
X79351Y66554D01*
X78500Y66724D01*
X72594D01*
X71744Y66554D01*
X71022Y66072D01*
X70540Y65351D01*
X70371Y64500D01*
X70540Y63649D01*
X71022Y62928D01*
X71744Y62445D01*
X72183Y62358D01*
X72133Y61858D01*
X71026D01*
X69189Y63695D01*
Y69032D01*
X70118D01*
Y74968D01*
X67505D01*
X67150Y75039D01*
X66794Y74968D01*
X64319D01*
X64181Y74968D01*
X63819D01*
X63681Y74968D01*
X61350D01*
Y72000D01*
Y69032D01*
X63681D01*
X63819Y69032D01*
X64181D01*
X64319Y69032D01*
X65110D01*
Y62850D01*
X65266Y62070D01*
X65708Y61409D01*
X68739Y58377D01*
X69401Y57935D01*
X70181Y57780D01*
X71243D01*
X71744Y57446D01*
X72594Y57276D01*
X78500D01*
X79351Y57446D01*
X80072Y57928D01*
X80555Y58649D01*
X80724Y59500D01*
X80555Y60351D01*
X80072Y61072D01*
X79351Y61554D01*
X78500Y61724D01*
X76136D01*
X76077Y61776D01*
X76265Y62276D01*
X78500D01*
X79351Y62445D01*
X79374Y62461D01*
X87689D01*
X88469Y62616D01*
X89131Y63058D01*
X90750Y64677D01*
X98134D01*
Y88724D01*
D02*
G37*
G36*
X49118Y68500D02*
X46847D01*
Y66031D01*
X49118D01*
Y68500D01*
D02*
G37*
G36*
X45847D02*
X43575D01*
Y66031D01*
X45847D01*
Y68500D01*
D02*
G37*
G36*
X130575Y85943D02*
X125425D01*
Y80793D01*
X126216D01*
Y70590D01*
X125545Y69919D01*
X125369Y69884D01*
X124708Y69442D01*
X124266Y68780D01*
X124110Y68000D01*
X124266Y67220D01*
X124708Y66558D01*
X125369Y66116D01*
X126150Y65961D01*
X126930Y66116D01*
X127592Y66558D01*
X128034Y67220D01*
X128069Y67396D01*
X129262Y68589D01*
X129648Y69168D01*
X129784Y69850D01*
Y80793D01*
X130575D01*
Y85943D01*
D02*
G37*
G36*
X59405Y66724D02*
X56953D01*
Y65000D01*
X61530D01*
X61460Y65351D01*
X60978Y66072D01*
X60256Y66554D01*
X59405Y66724D01*
D02*
G37*
G36*
X55953D02*
X53500D01*
X52649Y66554D01*
X51928Y66072D01*
X51446Y65351D01*
X51376Y65000D01*
X55953D01*
Y66724D01*
D02*
G37*
G36*
X61530Y64000D02*
X56953D01*
Y62276D01*
X59405D01*
X60256Y62445D01*
X60978Y62928D01*
X61460Y63649D01*
X61530Y64000D01*
D02*
G37*
G36*
X55953D02*
X51376D01*
X51446Y63649D01*
X51928Y62928D01*
X52649Y62445D01*
X53500Y62276D01*
X55953D01*
Y64000D01*
D02*
G37*
G36*
X123181Y62968D02*
X122819D01*
X122681Y62968D01*
X116882D01*
Y61784D01*
X115929D01*
X115780Y61884D01*
X115000Y62039D01*
X114220Y61884D01*
X113558Y61442D01*
X113116Y60780D01*
X112961Y60000D01*
X113116Y59220D01*
X113558Y58558D01*
X114220Y58116D01*
X115000Y57961D01*
X115780Y58116D01*
X115929Y58216D01*
X116882D01*
Y57032D01*
X122681D01*
X122819Y57032D01*
X123181D01*
X123319Y57032D01*
X125650D01*
Y60000D01*
Y62968D01*
X123319D01*
X123181Y62968D01*
D02*
G37*
G36*
X126650Y62968D02*
Y60500D01*
X129118D01*
Y62968D01*
X126650D01*
D02*
G37*
G36*
X49118Y64969D02*
X43575D01*
Y59031D01*
X45898D01*
X46437Y58618D01*
X46267Y58118D01*
X44032D01*
Y52319D01*
X44032Y52181D01*
Y51819D01*
X44032Y51681D01*
Y49350D01*
X49968D01*
Y51681D01*
X49968Y51819D01*
Y52216D01*
X50218Y52716D01*
X52245D01*
X52649Y52446D01*
X53500Y52276D01*
X59405D01*
X60256Y52446D01*
X60583Y52664D01*
X60981Y52398D01*
X61022Y52307D01*
X60961Y52000D01*
X61033Y51637D01*
X60583Y51336D01*
X60256Y51555D01*
X59405Y51724D01*
X53500D01*
X52649Y51555D01*
X51928Y51073D01*
X51446Y50351D01*
X51276Y49500D01*
X51446Y48649D01*
X51928Y47927D01*
X52079Y47826D01*
Y44969D01*
X50319D01*
X50181Y44969D01*
X49819D01*
X49681Y44969D01*
X47350D01*
Y42000D01*
Y39031D01*
X49681D01*
X49819Y39031D01*
X50181D01*
X50319Y39031D01*
X56118D01*
Y42772D01*
X56157Y42968D01*
Y47276D01*
X59405D01*
X60256Y47445D01*
X60978Y47927D01*
X61460Y48649D01*
X61629Y49500D01*
X61536Y49972D01*
X61985Y50273D01*
X62220Y50116D01*
X63000Y49961D01*
X63780Y50116D01*
X64442Y50558D01*
X64884Y51220D01*
X65039Y52000D01*
X64884Y52780D01*
X64784Y52930D01*
Y53500D01*
X64784Y53500D01*
X64648Y54183D01*
X64262Y54762D01*
X64262Y54762D01*
X63171Y55853D01*
X62592Y56239D01*
X61909Y56375D01*
X60525D01*
X60256Y56555D01*
X59405Y56724D01*
X53500D01*
X52649Y56555D01*
X52245Y56284D01*
X49968D01*
Y57818D01*
X52092D01*
X52649Y57446D01*
X53500Y57276D01*
X59405D01*
X60256Y57446D01*
X60978Y57928D01*
X61460Y58649D01*
X61629Y59500D01*
X61460Y60351D01*
X60978Y61072D01*
X60256Y61554D01*
X59405Y61724D01*
X53500D01*
X52649Y61554D01*
X52092Y61182D01*
X49118D01*
Y64969D01*
D02*
G37*
G36*
X129118Y59500D02*
X126650D01*
Y57032D01*
X129118D01*
Y59500D01*
D02*
G37*
G36*
X78500Y56724D02*
X76047D01*
Y55000D01*
X80624D01*
X80555Y55351D01*
X80072Y56072D01*
X79351Y56555D01*
X78500Y56724D01*
D02*
G37*
G36*
X75047D02*
X72594D01*
X71744Y56555D01*
X71022Y56072D01*
X70540Y55351D01*
X70470Y55000D01*
X75047D01*
Y56724D01*
D02*
G37*
G36*
X80624Y54000D02*
X76047D01*
Y52276D01*
X78500D01*
X79351Y52446D01*
X80072Y52928D01*
X80555Y53649D01*
X80624Y54000D01*
D02*
G37*
G36*
X75047D02*
X70470D01*
X70540Y53649D01*
X71022Y52928D01*
X71744Y52446D01*
X72594Y52276D01*
X75047D01*
Y54000D01*
D02*
G37*
G36*
X126756Y53177D02*
X125926Y53068D01*
X125152Y52747D01*
X124487Y52237D01*
X124250Y51928D01*
X123750D01*
X123513Y52237D01*
X122848Y52747D01*
X122074Y53068D01*
X121744Y53111D01*
Y49968D01*
Y46826D01*
X122074Y46869D01*
X122848Y47190D01*
X123513Y47700D01*
X123750Y48009D01*
X124250D01*
X124487Y47700D01*
X125152Y47190D01*
X125926Y46869D01*
X126756Y46760D01*
X127586Y46869D01*
X128360Y47190D01*
X129025Y47700D01*
X129535Y48364D01*
X129855Y49138D01*
X129964Y49968D01*
X129855Y50799D01*
X129535Y51573D01*
X129025Y52237D01*
X128360Y52747D01*
X127586Y53068D01*
X126756Y53177D01*
D02*
G37*
G36*
X120744Y53111D02*
X120414Y53068D01*
X119640Y52747D01*
X118975Y52237D01*
X118465Y51573D01*
X118145Y50799D01*
X118101Y50468D01*
X120744D01*
Y53111D01*
D02*
G37*
G36*
Y49468D02*
X118101D01*
X118145Y49138D01*
X118465Y48364D01*
X118975Y47700D01*
X119640Y47190D01*
X120414Y46869D01*
X120744Y46826D01*
Y49468D01*
D02*
G37*
G36*
X49968Y48350D02*
X47500D01*
Y45882D01*
X49968D01*
Y48350D01*
D02*
G37*
G36*
X46500D02*
X44032D01*
Y45882D01*
X46500D01*
Y48350D01*
D02*
G37*
G36*
X46350Y44969D02*
X43882D01*
Y42500D01*
X46350D01*
Y44969D01*
D02*
G37*
G36*
X98134Y51323D02*
X93500D01*
Y39799D01*
X98134D01*
Y51323D01*
D02*
G37*
G36*
X92500D02*
X87866D01*
Y39799D01*
X92500D01*
Y51323D01*
D02*
G37*
G36*
X46350Y41500D02*
X43882D01*
Y39031D01*
X46350D01*
Y41500D01*
D02*
G37*
G36*
X132000Y42039D02*
X131220Y41884D01*
X130927Y41689D01*
X130708D01*
X130025Y41553D01*
X129446Y41166D01*
X129446Y41166D01*
X127248Y38969D01*
X124228D01*
Y33031D01*
X124228D01*
Y32969D01*
X124228D01*
Y27031D01*
X129772D01*
Y32969D01*
X129772D01*
Y33031D01*
X129772D01*
Y36445D01*
X131406Y38079D01*
X132000Y37961D01*
X132780Y38116D01*
X133442Y38558D01*
X133884Y39220D01*
X134039Y40000D01*
X133884Y40780D01*
X133442Y41442D01*
X132780Y41884D01*
X132000Y42039D01*
D02*
G37*
G36*
X113000Y43039D02*
X112220Y42884D01*
X111558Y42442D01*
X111116Y41780D01*
X110961Y41000D01*
X111116Y40220D01*
X111558Y39558D01*
X112220Y39116D01*
X113000Y38961D01*
X113780Y39116D01*
X113929Y39216D01*
X114765D01*
X117535Y36445D01*
Y33468D01*
X117535Y33031D01*
X117535Y32531D01*
Y30500D01*
X120307D01*
X123079D01*
Y32531D01*
X123079Y32969D01*
X123079Y33468D01*
Y38969D01*
X120059D01*
X116766Y42262D01*
X116187Y42649D01*
X115504Y42784D01*
X113929D01*
X113780Y42884D01*
X113000Y43039D01*
D02*
G37*
G36*
X92500Y38799D02*
X87866D01*
Y29638D01*
X87366Y29493D01*
X86780Y29884D01*
X86000Y30039D01*
X85220Y29884D01*
X84558Y29442D01*
X84116Y28780D01*
X83961Y28000D01*
X84116Y27220D01*
X84558Y26558D01*
X85220Y26116D01*
X86000Y25961D01*
X86780Y26116D01*
X87442Y26558D01*
X87884Y27220D01*
X87895Y27276D01*
X92500D01*
Y38799D01*
D02*
G37*
G36*
X98134D02*
X93500D01*
Y27276D01*
X98134D01*
Y38799D01*
D02*
G37*
G36*
X123079Y29500D02*
X120807D01*
Y27031D01*
X123079D01*
Y29500D01*
D02*
G37*
G36*
X119807D02*
X117535D01*
Y27031D01*
X119807D01*
Y29500D01*
D02*
G37*
G36*
X54000Y30039D02*
X53220Y29884D01*
X52558Y29442D01*
X52116Y28780D01*
X51961Y28000D01*
X52116Y27220D01*
X52558Y26558D01*
X53220Y26116D01*
X54000Y25961D01*
X54780Y26116D01*
X55442Y26558D01*
X55884Y27220D01*
X56039Y28000D01*
X55884Y28780D01*
X55442Y29442D01*
X54780Y29884D01*
X54000Y30039D01*
D02*
G37*
G36*
X123413Y15350D02*
X120945D01*
Y12882D01*
X123413D01*
Y15350D01*
D02*
G37*
G36*
X119945D02*
X117476D01*
Y12882D01*
X119945D01*
Y15350D01*
D02*
G37*
G36*
X123413Y25118D02*
X117476D01*
Y19319D01*
X117476Y19181D01*
Y18819D01*
X117476Y18681D01*
Y16350D01*
X120445D01*
X123413D01*
Y18681D01*
X123413Y18819D01*
Y19181D01*
X123413Y19319D01*
Y20464D01*
X124378D01*
Y19425D01*
X128288D01*
X128479Y18963D01*
X127792Y18276D01*
X124378D01*
Y12732D01*
X130315D01*
Y15752D01*
X134262Y19699D01*
X134262Y19699D01*
X134649Y20278D01*
X134784Y20961D01*
X134784Y20961D01*
Y21070D01*
X134884Y21220D01*
X135039Y22000D01*
X134884Y22780D01*
X134442Y23442D01*
X133780Y23884D01*
X133000Y24039D01*
X132220Y23884D01*
X131558Y23442D01*
X131116Y22780D01*
X130961Y22000D01*
X131028Y21663D01*
X130815Y21470D01*
X130315Y21691D01*
Y24969D01*
X124378D01*
Y24032D01*
X123413D01*
Y25118D01*
D02*
G37*
G36*
X100000Y15377D02*
X98608Y15193D01*
X97312Y14656D01*
X96198Y13802D01*
X95344Y12688D01*
X94806Y11392D01*
X94623Y10000D01*
X94806Y8608D01*
X95344Y7312D01*
X96198Y6198D01*
X97312Y5344D01*
X98608Y4806D01*
X100000Y4623D01*
X101392Y4806D01*
X102688Y5344D01*
X103802Y6198D01*
X104656Y7312D01*
X105193Y8608D01*
X105377Y10000D01*
X105193Y11392D01*
X104656Y12688D01*
X103802Y13802D01*
X102688Y14656D01*
X101392Y15193D01*
X100000Y15377D01*
D02*
G37*
G36*
X80000D02*
X78608Y15193D01*
X77312Y14656D01*
X76198Y13802D01*
X75344Y12688D01*
X74806Y11392D01*
X74623Y10000D01*
X74806Y8608D01*
X75344Y7312D01*
X76198Y6198D01*
X77312Y5344D01*
X78608Y4806D01*
X80000Y4623D01*
X81392Y4806D01*
X82688Y5344D01*
X83802Y6198D01*
X84656Y7312D01*
X85194Y8608D01*
X85377Y10000D01*
X85194Y11392D01*
X84656Y12688D01*
X83802Y13802D01*
X82688Y14656D01*
X81392Y15193D01*
X80000Y15377D01*
D02*
G37*
G36*
X60000D02*
X58608Y15193D01*
X57312Y14656D01*
X56198Y13802D01*
X55344Y12688D01*
X54807Y11392D01*
X54623Y10000D01*
X54807Y8608D01*
X55344Y7312D01*
X56198Y6198D01*
X57312Y5344D01*
X58608Y4806D01*
X60000Y4623D01*
X61392Y4806D01*
X62688Y5344D01*
X63802Y6198D01*
X64656Y7312D01*
X65193Y8608D01*
X65377Y10000D01*
X65193Y11392D01*
X64656Y12688D01*
X63802Y13802D01*
X62688Y14656D01*
X61392Y15193D01*
X60000Y15377D01*
D02*
G37*
G36*
X40000D02*
X38608Y15193D01*
X37312Y14656D01*
X36198Y13802D01*
X35344Y12688D01*
X34806Y11392D01*
X34623Y10000D01*
X34806Y8608D01*
X35344Y7312D01*
X36198Y6198D01*
X37312Y5344D01*
X38608Y4806D01*
X40000Y4623D01*
X41392Y4806D01*
X42688Y5344D01*
X43802Y6198D01*
X44656Y7312D01*
X45193Y8608D01*
X45377Y10000D01*
X45193Y11392D01*
X44656Y12688D01*
X43802Y13802D01*
X42688Y14656D01*
X41392Y15193D01*
X40000Y15377D01*
D02*
G37*
%LPD*%
D19*
X120000Y89215D02*
D03*
Y82522D02*
D03*
X81696Y88346D02*
D03*
Y81653D02*
D03*
X72496Y88346D02*
D03*
Y81653D02*
D03*
X61528Y88346D02*
D03*
Y81653D02*
D03*
X53000Y88346D02*
D03*
Y81653D02*
D03*
X127347Y22197D02*
D03*
Y15504D02*
D03*
D20*
X112000Y89018D02*
D03*
Y82718D02*
D03*
X39000Y48850D02*
D03*
Y55150D02*
D03*
X120445Y22150D02*
D03*
Y15850D02*
D03*
X54000Y119150D02*
D03*
Y112850D02*
D03*
X47000Y55150D02*
D03*
Y48850D02*
D03*
D21*
X67150Y72000D02*
D03*
X60850D02*
D03*
X53150Y42000D02*
D03*
X46850D02*
D03*
X126150Y60000D02*
D03*
X119850D02*
D03*
D22*
X46347Y69000D02*
D03*
X39654D02*
D03*
X46347Y62000D02*
D03*
X39654D02*
D03*
X127000Y36000D02*
D03*
X120307D02*
D03*
Y30000D02*
D03*
X127000D02*
D03*
D23*
X61528Y100512D02*
D03*
X64087D02*
D03*
X66646D02*
D03*
X69205D02*
D03*
X71764D02*
D03*
X74323D02*
D03*
X76882D02*
D03*
X79441D02*
D03*
X82000D02*
D03*
X84559D02*
D03*
X61528Y128858D02*
D03*
X64087D02*
D03*
X66646D02*
D03*
X69205D02*
D03*
X71764D02*
D03*
X74323D02*
D03*
X76882D02*
D03*
X79441D02*
D03*
X82000D02*
D03*
X84559D02*
D03*
D24*
X75547Y49500D02*
D03*
Y54500D02*
D03*
Y59500D02*
D03*
Y64500D02*
D03*
X56453Y49500D02*
D03*
Y54500D02*
D03*
Y59500D02*
D03*
Y64500D02*
D03*
D25*
X129748Y111142D02*
D03*
X98252D02*
D03*
X129748Y128858D02*
D03*
X98252D02*
D03*
X10252D02*
D03*
X41748D02*
D03*
X10252Y111142D02*
D03*
X41748D02*
D03*
D26*
X11000Y36968D02*
D03*
Y62968D02*
D03*
D27*
X93000Y76701D02*
D03*
Y39299D02*
D03*
D40*
X112197Y89215D02*
G03*
X112000Y89018I0J-197D01*
G01*
X29000Y37000D02*
G03*
X39000Y47000I0J10000D01*
G01*
X46347Y62000D02*
G03*
X48847Y59500I2500J0D01*
G01*
X39000Y55150D02*
G03*
X39654Y56727I-1578J1578D01*
G01*
X112197Y89215D02*
X120000D01*
X79677Y124222D02*
X86000Y117899D01*
X79677Y124222D02*
Y128622D01*
X79441Y128858D02*
X79677Y128622D01*
X86000Y108000D02*
Y117899D01*
Y108000D02*
X90000Y104000D01*
X104488D01*
X112000Y96488D01*
Y89018D02*
Y96488D01*
X120000Y89274D02*
X128000D01*
X120000Y89215D02*
Y89274D01*
X13000Y37000D02*
X29000D01*
X48847Y59500D02*
X56453D01*
X39000Y47000D02*
Y48850D01*
X39654Y56727D02*
Y62000D01*
Y69000D01*
D41*
X128000Y83368D02*
D03*
Y89274D02*
D03*
D42*
X54000Y104000D02*
X61528D01*
X128000Y69850D02*
Y83368D01*
X126150Y68000D02*
X128000Y69850D01*
X69178Y94000D02*
X71764Y96586D01*
X58850Y94000D02*
X69178D01*
X53197Y88346D02*
X58850Y94000D01*
X64827Y91646D02*
X70875D01*
X61528Y88346D02*
X64827Y91646D01*
X70875D02*
X74323Y95094D01*
X84559Y123540D02*
X90620Y117479D01*
X84559Y123540D02*
Y128858D01*
X90620Y115380D02*
Y117479D01*
Y115380D02*
X91000Y115000D01*
X58916Y136750D02*
X79250D01*
X48000Y125834D02*
X58916Y136750D01*
X48000Y116000D02*
Y125834D01*
X91000Y115000D02*
X91135D01*
X92594Y113541D01*
X95852D01*
X98252Y111142D01*
X79250Y136750D02*
X82000Y134000D01*
X69000Y122200D02*
Y122399D01*
X66646Y124754D02*
X69000Y122399D01*
X66646Y124754D02*
Y128858D01*
X59055Y76701D02*
X61471Y79117D01*
X57528Y76701D02*
X59055D01*
X104353Y100000D02*
X104488D01*
X103603Y100750D02*
X104353Y100000D01*
X84695Y100750D02*
X103603D01*
X84559Y100614D02*
X84695Y100750D01*
X84559Y100512D02*
Y100614D01*
X61471Y79117D02*
Y81596D01*
X61528Y81653D01*
X127543Y15504D02*
X133000Y20961D01*
Y22000D01*
X115000Y60000D02*
X119850D01*
X127347Y15504D02*
X127543D01*
X127248Y22248D02*
X127347Y22150D01*
X120445Y22248D02*
X127248D01*
X120346Y22346D02*
X120445Y22248D01*
X131904Y39904D02*
X132000Y40000D01*
X130708Y39904D02*
X131904D01*
X127000Y36197D02*
X130708Y39904D01*
X127000Y36000D02*
Y36197D01*
X113000Y41000D02*
X115504D01*
X120307Y36197D01*
Y36000D02*
Y36197D01*
X127000Y30000D02*
Y36000D01*
X64000Y121000D02*
X64087Y121087D01*
Y128858D01*
X69205Y110205D02*
X78000Y119000D01*
X69205Y100512D02*
Y110205D01*
X53000Y88346D02*
X53197D01*
X71764Y96586D02*
Y100512D01*
X74323Y95094D02*
Y100512D01*
X72693Y88346D02*
X76882Y92535D01*
X72496Y88346D02*
X72693D01*
X76882Y92535D02*
Y100512D01*
X79441Y92000D02*
X80478Y90963D01*
Y89368D02*
Y90963D01*
Y89368D02*
X81500Y88346D01*
X81696D01*
X79441Y92000D02*
Y100512D01*
X53000Y77000D02*
Y81653D01*
X72496Y80000D02*
X74000Y78496D01*
X82803Y81653D02*
X83000D01*
X78000Y76850D02*
X82803Y81653D01*
X78000Y72000D02*
Y76850D01*
X74000Y75000D02*
Y78496D01*
X63000Y52000D02*
Y53500D01*
X61909Y54591D02*
X63000Y53500D01*
X56544Y54591D02*
X61909D01*
X82000Y95000D02*
X83000Y94000D01*
X82000Y95000D02*
Y100512D01*
X83000Y94000D02*
X97000D01*
X103000Y88000D01*
Y59000D02*
Y88000D01*
X100750Y56750D02*
X103000Y59000D01*
X88781Y56750D02*
X100750D01*
X81696Y49665D02*
X88781Y56750D01*
X75712Y49665D02*
X81696D01*
X75547Y49500D02*
X75712Y49665D01*
X56453Y54500D02*
X56544Y54591D01*
X47000Y55150D02*
X47650Y54500D01*
X56453D01*
X82000Y128858D02*
Y134000D01*
X10252Y111142D02*
X41748D01*
X98252D02*
X129748D01*
X44148Y113541D02*
X45541D01*
X41748Y111142D02*
X44148Y113541D01*
X45541D02*
X48000Y116000D01*
X61528Y104000D02*
Y106472D01*
Y100512D02*
Y104000D01*
X56368Y111632D02*
X61528Y106472D01*
X55218Y111632D02*
X56368D01*
X54000Y112850D02*
X55218Y111632D01*
D43*
X67150Y62850D02*
X70181Y59819D01*
X67150Y62850D02*
Y73000D01*
X87689Y64500D02*
X93000Y69811D01*
X75547Y64500D02*
X87689D01*
X93000Y39299D02*
X96000Y42299D01*
X70181Y59819D02*
X75228D01*
X75547Y59500D01*
X53150Y42000D02*
X54118Y42968D01*
Y49333D01*
X54285Y49500D01*
X56453D01*
X93000Y69811D02*
Y76701D01*
D44*
X121244Y49968D02*
D03*
X126756D02*
D03*
D45*
X60000Y10000D02*
D03*
X100000D02*
D03*
X80000D02*
D03*
X40000D02*
D03*
D46*
X33685Y97079D02*
D03*
Y87120D02*
D03*
Y76710D02*
D03*
X33884Y65859D02*
D03*
X34000Y55712D02*
D03*
X24000Y41859D02*
D03*
Y32250D02*
D03*
X32243Y32391D02*
D03*
X32000Y43000D02*
D03*
X119929Y77000D02*
D03*
X91000Y115000D02*
D03*
X69000Y122200D02*
D03*
X57528Y76701D02*
D03*
X54000Y72000D02*
D03*
X126150Y68000D02*
D03*
X133000Y22000D02*
D03*
X39000Y34000D02*
D03*
X54000Y28000D02*
D03*
X89000Y98000D02*
D03*
X113000Y24000D02*
D03*
X115000Y60000D02*
D03*
X84000Y16000D02*
D03*
X104488Y100000D02*
D03*
X132000Y40000D02*
D03*
X113000Y41000D02*
D03*
X49000Y18000D02*
D03*
X86000Y28000D02*
D03*
X64000Y121000D02*
D03*
X78000Y119000D02*
D03*
X89000Y109000D02*
D03*
X78000Y72000D02*
D03*
X74000Y75000D02*
D03*
X53000Y77000D02*
D03*
X83476Y70000D02*
D03*
X63000Y52000D02*
D03*
X106000Y129000D02*
D03*
X48000Y116000D02*
D03*
X30000Y120000D02*
D03*
X108000D02*
D03*
X48000Y100512D02*
D03*
X54000Y104000D02*
D03*
Y98000D02*
D03*
X34000Y128858D02*
D03*
M02*
