G04*
G04 #@! TF.GenerationSoftware,Altium Limited,Altium Designer,19.0.10 (269)*
G04*
G04 Layer_Color=8388736*
%FSLAX25Y25*%
%MOIN*%
G70*
G01*
G75*
%ADD28R,0.10800X0.04800*%
%ADD29R,0.04343X0.04737*%
%ADD30R,0.05328X0.06115*%
%ADD31R,0.04537X0.04537*%
%ADD32R,0.07887X0.07099*%
%ADD33R,0.03359X0.05131*%
%ADD34C,0.04537*%
%ADD35R,0.05524X0.14580*%
%ADD36R,0.05131X0.03359*%
%ADD37R,0.04537X0.04537*%
%ADD38R,0.06115X0.05328*%
%ADD39C,0.00800*%
G36*
X70003Y92126D02*
Y92121D01*
Y92115D01*
Y92098D01*
Y92076D01*
Y92015D01*
Y91938D01*
X69997Y91843D01*
Y91738D01*
X69991Y91616D01*
Y91488D01*
X69986Y91355D01*
X69975Y91222D01*
X69958Y90950D01*
X69947Y90822D01*
X69930Y90700D01*
X69914Y90595D01*
X69897Y90495D01*
Y90489D01*
X69892Y90472D01*
X69886Y90450D01*
X69875Y90417D01*
X69864Y90378D01*
X69847Y90328D01*
X69831Y90278D01*
X69808Y90217D01*
X69758Y90095D01*
X69686Y89956D01*
X69609Y89823D01*
X69509Y89695D01*
X69503Y89690D01*
X69498Y89679D01*
X69481Y89662D01*
X69459Y89640D01*
X69431Y89612D01*
X69392Y89584D01*
X69353Y89546D01*
X69309Y89507D01*
X69198Y89423D01*
X69070Y89335D01*
X68920Y89251D01*
X68754Y89174D01*
X68748D01*
X68732Y89168D01*
X68704Y89157D01*
X68671Y89146D01*
X68621Y89129D01*
X68565Y89113D01*
X68499Y89096D01*
X68426Y89079D01*
X68343Y89057D01*
X68249Y89040D01*
X68149Y89024D01*
X68038Y89013D01*
X67921Y88996D01*
X67799Y88990D01*
X67666Y88979D01*
X67439D01*
X67377Y88985D01*
X67300D01*
X67211Y88990D01*
X67117Y88996D01*
X67011Y89007D01*
X66900Y89018D01*
X66784Y89029D01*
X66556Y89068D01*
X66439Y89090D01*
X66334Y89118D01*
X66229Y89152D01*
X66134Y89190D01*
X66129D01*
X66112Y89201D01*
X66090Y89213D01*
X66057Y89229D01*
X66018Y89251D01*
X65973Y89274D01*
X65862Y89340D01*
X65746Y89418D01*
X65618Y89512D01*
X65496Y89618D01*
X65385Y89740D01*
X65379Y89745D01*
X65374Y89756D01*
X65357Y89773D01*
X65341Y89801D01*
X65318Y89829D01*
X65296Y89867D01*
X65241Y89956D01*
X65180Y90062D01*
X65119Y90184D01*
X65063Y90311D01*
X65024Y90450D01*
Y90456D01*
X65019Y90478D01*
X65013Y90506D01*
X65008Y90556D01*
X64996Y90611D01*
X64985Y90683D01*
X64974Y90761D01*
X64963Y90861D01*
X64952Y90966D01*
X64941Y91088D01*
X64930Y91222D01*
X64919Y91366D01*
X64913Y91521D01*
X64908Y91693D01*
X64902Y91877D01*
Y92071D01*
Y95490D01*
X66195D01*
Y92021D01*
Y92010D01*
Y91988D01*
Y91943D01*
Y91888D01*
Y91821D01*
Y91749D01*
X66201Y91666D01*
Y91577D01*
X66206Y91394D01*
X66212Y91222D01*
X66217Y91138D01*
X66223Y91066D01*
X66234Y91000D01*
X66240Y90950D01*
Y90944D01*
X66245Y90933D01*
X66251Y90911D01*
X66256Y90883D01*
X66267Y90850D01*
X66284Y90811D01*
X66323Y90722D01*
X66373Y90622D01*
X66439Y90517D01*
X66528Y90411D01*
X66634Y90317D01*
X66639D01*
X66650Y90306D01*
X66667Y90295D01*
X66689Y90278D01*
X66723Y90262D01*
X66761Y90245D01*
X66806Y90223D01*
X66856Y90200D01*
X66917Y90178D01*
X66978Y90156D01*
X67050Y90139D01*
X67128Y90123D01*
X67205Y90106D01*
X67294Y90095D01*
X67388Y90089D01*
X67488Y90084D01*
X67538D01*
X67577Y90089D01*
X67627D01*
X67677Y90095D01*
X67733Y90101D01*
X67799Y90112D01*
X67932Y90139D01*
X68071Y90178D01*
X68199Y90234D01*
X68260Y90267D01*
X68315Y90306D01*
X68321Y90311D01*
X68326Y90317D01*
X68360Y90345D01*
X68404Y90395D01*
X68460Y90461D01*
X68521Y90539D01*
X68571Y90639D01*
X68621Y90744D01*
X68648Y90861D01*
Y90866D01*
X68654Y90877D01*
Y90894D01*
X68660Y90922D01*
X68665Y90961D01*
X68671Y91005D01*
X68676Y91055D01*
X68682Y91122D01*
X68687Y91188D01*
X68693Y91272D01*
Y91360D01*
X68698Y91455D01*
X68704Y91566D01*
X68709Y91682D01*
Y91804D01*
Y91943D01*
Y95490D01*
X70003D01*
Y92126D01*
D02*
G37*
G36*
X63842Y94407D02*
X60745D01*
Y92892D01*
X63420D01*
Y91810D01*
X60745D01*
Y89090D01*
X59452D01*
Y95490D01*
X63842D01*
Y94407D01*
D02*
G37*
G36*
X55967Y95484D02*
X56061Y95478D01*
X56166Y95473D01*
X56283Y95467D01*
X56527Y95445D01*
X56777Y95417D01*
X56893Y95395D01*
X57004Y95373D01*
X57110Y95345D01*
X57204Y95312D01*
X57210D01*
X57227Y95306D01*
X57249Y95295D01*
X57282Y95279D01*
X57321Y95257D01*
X57365Y95234D01*
X57471Y95173D01*
X57593Y95084D01*
X57654Y95034D01*
X57715Y94979D01*
X57776Y94918D01*
X57837Y94851D01*
X57893Y94774D01*
X57948Y94696D01*
X57954Y94690D01*
X57959Y94674D01*
X57976Y94652D01*
X57992Y94618D01*
X58015Y94579D01*
X58037Y94529D01*
X58065Y94468D01*
X58092Y94407D01*
X58114Y94335D01*
X58142Y94257D01*
X58164Y94174D01*
X58187Y94085D01*
X58220Y93897D01*
X58226Y93797D01*
X58231Y93691D01*
Y93686D01*
Y93658D01*
Y93619D01*
X58226Y93569D01*
X58220Y93508D01*
X58209Y93436D01*
X58198Y93358D01*
X58175Y93270D01*
X58153Y93181D01*
X58126Y93081D01*
X58092Y92987D01*
X58053Y92881D01*
X58003Y92781D01*
X57942Y92687D01*
X57881Y92587D01*
X57804Y92498D01*
X57798Y92493D01*
X57781Y92476D01*
X57759Y92454D01*
X57726Y92426D01*
X57682Y92387D01*
X57626Y92343D01*
X57560Y92298D01*
X57487Y92248D01*
X57404Y92198D01*
X57310Y92149D01*
X57210Y92098D01*
X57093Y92054D01*
X56971Y92010D01*
X56838Y91971D01*
X56694Y91938D01*
X56544Y91910D01*
X56549D01*
X56560Y91899D01*
X56583Y91888D01*
X56616Y91865D01*
X56649Y91843D01*
X56688Y91816D01*
X56788Y91749D01*
X56893Y91671D01*
X57010Y91582D01*
X57127Y91477D01*
X57232Y91372D01*
X57238Y91366D01*
X57243Y91360D01*
X57260Y91338D01*
X57282Y91316D01*
X57310Y91283D01*
X57343Y91238D01*
X57382Y91194D01*
X57426Y91133D01*
X57476Y91066D01*
X57532Y90994D01*
X57593Y90905D01*
X57659Y90811D01*
X57732Y90706D01*
X57804Y90595D01*
X57887Y90467D01*
X57970Y90334D01*
X58753Y89090D01*
X57204D01*
X56272Y90483D01*
X56266Y90495D01*
X56250Y90517D01*
X56227Y90556D01*
X56189Y90606D01*
X56150Y90661D01*
X56105Y90728D01*
X56055Y90800D01*
X56000Y90877D01*
X55883Y91039D01*
X55772Y91194D01*
X55722Y91260D01*
X55673Y91327D01*
X55628Y91377D01*
X55589Y91421D01*
X55584Y91432D01*
X55556Y91455D01*
X55523Y91488D01*
X55473Y91527D01*
X55412Y91571D01*
X55351Y91616D01*
X55278Y91654D01*
X55201Y91688D01*
X55190Y91693D01*
X55162Y91699D01*
X55112Y91710D01*
X55045Y91727D01*
X54951Y91738D01*
X54840Y91749D01*
X54707Y91754D01*
X54635Y91760D01*
X54290D01*
Y89090D01*
X52997D01*
Y95490D01*
X55878D01*
X55967Y95484D01*
D02*
G37*
G36*
X67808Y81300D02*
X66420D01*
X64134Y87700D01*
X65532D01*
X67153Y82965D01*
X68718Y87700D01*
X70094D01*
X67808Y81300D01*
D02*
G37*
G36*
X63423Y84336D02*
Y84331D01*
Y84325D01*
Y84308D01*
Y84286D01*
Y84225D01*
Y84148D01*
X63418Y84053D01*
Y83948D01*
X63412Y83826D01*
Y83698D01*
X63406Y83565D01*
X63395Y83432D01*
X63379Y83160D01*
X63368Y83032D01*
X63351Y82910D01*
X63334Y82805D01*
X63318Y82705D01*
Y82699D01*
X63312Y82682D01*
X63306Y82660D01*
X63295Y82627D01*
X63284Y82588D01*
X63268Y82538D01*
X63251Y82488D01*
X63229Y82427D01*
X63179Y82305D01*
X63107Y82166D01*
X63029Y82033D01*
X62929Y81905D01*
X62924Y81900D01*
X62918Y81889D01*
X62901Y81872D01*
X62879Y81850D01*
X62851Y81822D01*
X62813Y81794D01*
X62774Y81756D01*
X62729Y81717D01*
X62618Y81633D01*
X62491Y81545D01*
X62341Y81461D01*
X62174Y81384D01*
X62169D01*
X62152Y81378D01*
X62124Y81367D01*
X62091Y81356D01*
X62041Y81339D01*
X61986Y81323D01*
X61919Y81306D01*
X61847Y81289D01*
X61764Y81267D01*
X61669Y81251D01*
X61569Y81234D01*
X61458Y81223D01*
X61342Y81206D01*
X61220Y81200D01*
X61086Y81189D01*
X60859D01*
X60798Y81195D01*
X60720D01*
X60631Y81200D01*
X60537Y81206D01*
X60432Y81217D01*
X60321Y81228D01*
X60204Y81239D01*
X59977Y81278D01*
X59860Y81300D01*
X59755Y81328D01*
X59649Y81362D01*
X59555Y81400D01*
X59549D01*
X59532Y81411D01*
X59510Y81423D01*
X59477Y81439D01*
X59438Y81461D01*
X59394Y81484D01*
X59283Y81550D01*
X59166Y81628D01*
X59039Y81722D01*
X58916Y81828D01*
X58806Y81950D01*
X58800Y81955D01*
X58794Y81966D01*
X58778Y81983D01*
X58761Y82011D01*
X58739Y82039D01*
X58717Y82077D01*
X58661Y82166D01*
X58600Y82272D01*
X58539Y82394D01*
X58484Y82521D01*
X58445Y82660D01*
Y82666D01*
X58439Y82688D01*
X58434Y82716D01*
X58428Y82766D01*
X58417Y82821D01*
X58406Y82893D01*
X58395Y82971D01*
X58384Y83071D01*
X58373Y83176D01*
X58362Y83298D01*
X58350Y83432D01*
X58339Y83576D01*
X58334Y83731D01*
X58328Y83903D01*
X58323Y84087D01*
Y84281D01*
Y87700D01*
X59616D01*
Y84231D01*
Y84220D01*
Y84197D01*
Y84153D01*
Y84098D01*
Y84031D01*
Y83959D01*
X59621Y83876D01*
Y83787D01*
X59627Y83604D01*
X59632Y83432D01*
X59638Y83348D01*
X59644Y83276D01*
X59655Y83210D01*
X59660Y83160D01*
Y83154D01*
X59666Y83143D01*
X59671Y83121D01*
X59677Y83093D01*
X59688Y83060D01*
X59705Y83021D01*
X59743Y82932D01*
X59793Y82832D01*
X59860Y82727D01*
X59949Y82621D01*
X60054Y82527D01*
X60060D01*
X60071Y82516D01*
X60088Y82505D01*
X60110Y82488D01*
X60143Y82472D01*
X60182Y82455D01*
X60226Y82433D01*
X60276Y82410D01*
X60337Y82388D01*
X60398Y82366D01*
X60470Y82349D01*
X60548Y82333D01*
X60626Y82316D01*
X60715Y82305D01*
X60809Y82299D01*
X60909Y82294D01*
X60959D01*
X60998Y82299D01*
X61048D01*
X61098Y82305D01*
X61153Y82310D01*
X61220Y82322D01*
X61353Y82349D01*
X61492Y82388D01*
X61619Y82444D01*
X61680Y82477D01*
X61736Y82516D01*
X61741Y82521D01*
X61747Y82527D01*
X61780Y82555D01*
X61825Y82605D01*
X61880Y82671D01*
X61941Y82749D01*
X61991Y82849D01*
X62041Y82954D01*
X62069Y83071D01*
Y83076D01*
X62074Y83087D01*
Y83104D01*
X62080Y83132D01*
X62085Y83171D01*
X62091Y83215D01*
X62097Y83265D01*
X62102Y83332D01*
X62108Y83398D01*
X62113Y83482D01*
Y83570D01*
X62119Y83665D01*
X62124Y83776D01*
X62130Y83892D01*
Y84014D01*
Y84153D01*
Y87700D01*
X63423D01*
Y84336D01*
D02*
G37*
G36*
X54199Y82383D02*
X57407D01*
Y81300D01*
X52906D01*
Y87650D01*
X54199D01*
Y82383D01*
D02*
G37*
G36*
X58897Y73510D02*
X57698D01*
X57693Y78544D01*
X56427Y73510D01*
X55184D01*
X53919Y78544D01*
Y73510D01*
X52720D01*
Y79910D01*
X54651D01*
X55811Y75542D01*
X56954Y79910D01*
X58897D01*
Y73510D01*
D02*
G37*
G36*
X70280Y78827D02*
X68388D01*
Y73510D01*
X67094D01*
Y78827D01*
X65196D01*
Y79910D01*
X70280D01*
Y78827D01*
D02*
G37*
G36*
X61517Y74593D02*
X64724D01*
Y73510D01*
X60224D01*
Y79860D01*
X61517D01*
Y74593D01*
D02*
G37*
%LPC*%
G36*
X55673Y94407D02*
X54290D01*
Y92781D01*
X55467D01*
X55550Y92787D01*
X55639D01*
X55739Y92792D01*
X55933Y92798D01*
X56033Y92809D01*
X56122Y92814D01*
X56211Y92826D01*
X56283Y92831D01*
X56350Y92848D01*
X56400Y92859D01*
X56411Y92864D01*
X56438Y92875D01*
X56483Y92892D01*
X56533Y92920D01*
X56594Y92959D01*
X56655Y93003D01*
X56710Y93059D01*
X56766Y93125D01*
X56771Y93136D01*
X56788Y93159D01*
X56810Y93203D01*
X56832Y93259D01*
X56855Y93331D01*
X56877Y93414D01*
X56893Y93503D01*
X56899Y93608D01*
Y93614D01*
Y93625D01*
Y93641D01*
Y93664D01*
X56888Y93719D01*
X56877Y93797D01*
X56855Y93875D01*
X56827Y93963D01*
X56783Y94052D01*
X56722Y94130D01*
X56716Y94141D01*
X56688Y94163D01*
X56649Y94196D01*
X56599Y94235D01*
X56527Y94280D01*
X56444Y94324D01*
X56350Y94357D01*
X56239Y94385D01*
X56222D01*
X56200Y94391D01*
X56150D01*
X56111Y94396D01*
X56006D01*
X55939Y94402D01*
X55778D01*
X55673Y94407D01*
D02*
G37*
%LPD*%
D28*
X40000Y133000D02*
D03*
Y107000D02*
D03*
D29*
X57150Y62000D02*
D03*
X50850D02*
D03*
X14654Y68000D02*
D03*
X21347D02*
D03*
X50850Y38000D02*
D03*
X57150D02*
D03*
D30*
X30358Y66000D02*
D03*
X37642D02*
D03*
D31*
X33701Y90000D02*
D03*
X40000D02*
D03*
Y98000D02*
D03*
X33701D02*
D03*
X14850Y76000D02*
D03*
X21150D02*
D03*
X14850Y60000D02*
D03*
X21150D02*
D03*
D32*
X24252Y26858D02*
D03*
X55748D02*
D03*
X24252Y9142D02*
D03*
X55748D02*
D03*
D33*
X12260Y39276D02*
D03*
X16000D02*
D03*
X19740D02*
D03*
Y48724D02*
D03*
X16000D02*
D03*
X12260D02*
D03*
D34*
X14000Y18000D02*
D03*
Y8000D02*
D03*
X6000Y18000D02*
D03*
X14000Y28000D02*
D03*
X6000D02*
D03*
D35*
X70000Y60827D02*
D03*
Y39173D02*
D03*
D36*
X44917Y53740D02*
D03*
Y50000D02*
D03*
Y46260D02*
D03*
X54366D02*
D03*
Y50000D02*
D03*
Y53740D02*
D03*
D37*
X37642Y74850D02*
D03*
Y81150D02*
D03*
X34000Y44850D02*
D03*
Y51150D02*
D03*
D38*
X70000Y21642D02*
D03*
Y14358D02*
D03*
D39*
Y130000D02*
D03*
X10000D02*
D03*
M02*
