G04*
G04 #@! TF.GenerationSoftware,Altium Limited,Altium Designer,19.0.10 (269)*
G04*
G04 Layer_Color=32896*
%FSLAX25Y25*%
%MOIN*%
G70*
G01*
G75*
G36*
X40644Y109161D02*
X40586Y109148D01*
X40533Y109130D01*
X40484Y109112D01*
X40435Y109095D01*
X40400Y109077D01*
X40369Y109059D01*
X40346Y109050D01*
X40342Y109046D01*
X40289Y109010D01*
X40240Y108970D01*
X40200Y108930D01*
X40169Y108890D01*
X40146Y108855D01*
X40129Y108828D01*
X40120Y108810D01*
X40115Y108802D01*
X40009Y108544D01*
X39956Y108415D01*
X39902Y108296D01*
X39854Y108176D01*
X39805Y108065D01*
X39760Y107958D01*
X39720Y107860D01*
X39685Y107767D01*
X39649Y107687D01*
X39618Y107616D01*
X39596Y107554D01*
X39574Y107505D01*
X39560Y107470D01*
X39552Y107447D01*
X39547Y107439D01*
X39441Y107185D01*
X39338Y106928D01*
X39285Y106804D01*
X39236Y106679D01*
X39187Y106564D01*
X39143Y106453D01*
X39103Y106351D01*
X39063Y106257D01*
X39032Y106178D01*
X39001Y106107D01*
X38979Y106049D01*
X38961Y106004D01*
X38952Y105978D01*
X38948Y105973D01*
Y105969D01*
X38677D01*
X38628Y106115D01*
X38601Y106186D01*
X38579Y106249D01*
X38561Y106302D01*
X38548Y106346D01*
X38539Y106373D01*
X38535Y106377D01*
Y106382D01*
X38508Y106462D01*
X38482Y106533D01*
X38455Y106595D01*
X38433Y106653D01*
X38415Y106697D01*
X38402Y106733D01*
X38393Y106750D01*
X38388Y106759D01*
X38304Y106959D01*
X38220Y107154D01*
X38184Y107243D01*
X38144Y107332D01*
X38109Y107412D01*
X38078Y107487D01*
X38046Y107558D01*
X38020Y107621D01*
X37998Y107674D01*
X37975Y107718D01*
X37962Y107758D01*
X37949Y107785D01*
X37944Y107803D01*
X37940Y107807D01*
X37860Y107994D01*
X37780Y108167D01*
X37745Y108251D01*
X37709Y108331D01*
X37678Y108406D01*
X37647Y108473D01*
X37620Y108540D01*
X37593Y108593D01*
X37571Y108646D01*
X37554Y108686D01*
X37540Y108722D01*
X37527Y108744D01*
X37518Y108762D01*
Y108766D01*
X37478Y108842D01*
X37438Y108904D01*
X37403Y108953D01*
X37363Y108997D01*
X37332Y109024D01*
X37305Y109046D01*
X37287Y109059D01*
X37283Y109064D01*
X37229Y109095D01*
X37176Y109117D01*
X37127Y109135D01*
X37078Y109152D01*
X37043Y109161D01*
X37012Y109170D01*
X36994Y109175D01*
X36985D01*
Y109388D01*
X38282D01*
Y109166D01*
X38246Y109161D01*
X38206Y109152D01*
X38188Y109148D01*
X38175D01*
X38166Y109143D01*
X38162D01*
X38104Y109126D01*
X38055Y109112D01*
X38033Y109104D01*
X38020Y109095D01*
X38011Y109090D01*
X38006D01*
X37953Y109064D01*
X37909Y109037D01*
X37891Y109024D01*
X37878Y109015D01*
X37873Y109010D01*
X37869Y109006D01*
X37851Y108988D01*
X37833Y108970D01*
X37820Y108939D01*
X37811Y108913D01*
Y108908D01*
Y108904D01*
X37815Y108846D01*
X37824Y108793D01*
X37833Y108775D01*
X37838Y108757D01*
X37842Y108748D01*
Y108744D01*
X37864Y108682D01*
X37887Y108628D01*
X37895Y108606D01*
X37904Y108589D01*
X37909Y108575D01*
Y108571D01*
X37989Y108375D01*
X38064Y108189D01*
X38100Y108105D01*
X38131Y108020D01*
X38162Y107945D01*
X38193Y107878D01*
X38220Y107816D01*
X38242Y107758D01*
X38264Y107709D01*
X38282Y107665D01*
X38295Y107634D01*
X38304Y107612D01*
X38308Y107594D01*
X38313Y107589D01*
X38379Y107434D01*
X38442Y107292D01*
X38468Y107230D01*
X38495Y107168D01*
X38517Y107114D01*
X38539Y107061D01*
X38557Y107017D01*
X38575Y106977D01*
X38588Y106941D01*
X38601Y106915D01*
X38610Y106892D01*
X38619Y106875D01*
X38624Y106866D01*
Y106861D01*
X38655Y106937D01*
X38686Y107012D01*
X38757Y107181D01*
X38828Y107350D01*
X38859Y107430D01*
X38890Y107510D01*
X38921Y107581D01*
X38952Y107652D01*
X38974Y107714D01*
X38997Y107767D01*
X39014Y107807D01*
X39028Y107843D01*
X39037Y107860D01*
X39041Y107869D01*
X39090Y107985D01*
X39130Y108091D01*
X39174Y108193D01*
X39210Y108287D01*
X39250Y108371D01*
X39281Y108451D01*
X39312Y108526D01*
X39338Y108589D01*
X39361Y108646D01*
X39383Y108700D01*
X39401Y108744D01*
X39414Y108779D01*
X39427Y108806D01*
X39432Y108824D01*
X39441Y108837D01*
Y108842D01*
X39454Y108882D01*
X39463Y108913D01*
X39472Y108930D01*
X39476Y108939D01*
X39485Y108966D01*
X39489Y108984D01*
Y108993D01*
X39485Y109019D01*
X39467Y109041D01*
X39441Y109059D01*
X39414Y109077D01*
X39387Y109086D01*
X39361Y109095D01*
X39343Y109104D01*
X39338D01*
X39281Y109117D01*
X39232Y109126D01*
X39187Y109135D01*
X39152Y109139D01*
X39121Y109143D01*
X39081D01*
Y109388D01*
X40644D01*
Y109161D01*
D02*
G37*
G36*
X42318Y109476D02*
X42438Y109459D01*
X42549Y109432D01*
X42646Y109406D01*
X42686Y109392D01*
X42726Y109379D01*
X42757Y109365D01*
X42784Y109352D01*
X42806Y109343D01*
X42824Y109334D01*
X42833Y109330D01*
X42837D01*
X42939Y109268D01*
X43033Y109206D01*
X43117Y109139D01*
X43188Y109077D01*
X43246Y109019D01*
X43286Y108975D01*
X43299Y108957D01*
X43312Y108944D01*
X43317Y108939D01*
X43321Y108935D01*
X43392Y108837D01*
X43454Y108739D01*
X43508Y108642D01*
X43548Y108553D01*
X43583Y108477D01*
X43596Y108442D01*
X43610Y108415D01*
X43614Y108393D01*
X43623Y108375D01*
X43628Y108367D01*
Y108362D01*
X43663Y108242D01*
X43685Y108127D01*
X43703Y108020D01*
X43716Y107922D01*
X43721Y107878D01*
X43725Y107838D01*
Y107803D01*
X43730Y107776D01*
Y107749D01*
Y107732D01*
Y107723D01*
Y107718D01*
X43725Y107581D01*
X43716Y107452D01*
X43698Y107336D01*
X43681Y107230D01*
X43672Y107185D01*
X43663Y107146D01*
X43654Y107110D01*
X43645Y107079D01*
X43641Y107052D01*
X43636Y107035D01*
X43632Y107026D01*
Y107021D01*
X43592Y106901D01*
X43543Y106795D01*
X43494Y106693D01*
X43445Y106608D01*
X43401Y106542D01*
X43383Y106511D01*
X43365Y106488D01*
X43352Y106471D01*
X43343Y106457D01*
X43334Y106448D01*
Y106444D01*
X43255Y106355D01*
X43175Y106280D01*
X43090Y106213D01*
X43010Y106155D01*
X42939Y106111D01*
X42908Y106093D01*
X42882Y106080D01*
X42864Y106067D01*
X42846Y106062D01*
X42837Y106053D01*
X42833D01*
X42713Y106004D01*
X42588Y105973D01*
X42469Y105947D01*
X42358Y105929D01*
X42304Y105924D01*
X42260Y105920D01*
X42216Y105916D01*
X42180D01*
X42153Y105911D01*
X42113D01*
X42029Y105916D01*
X41945Y105920D01*
X41789Y105947D01*
X41718Y105969D01*
X41647Y105987D01*
X41585Y106009D01*
X41527Y106031D01*
X41474Y106053D01*
X41430Y106076D01*
X41390Y106098D01*
X41354Y106115D01*
X41328Y106129D01*
X41310Y106142D01*
X41296Y106147D01*
X41292Y106151D01*
X41163Y106249D01*
X41052Y106351D01*
X40955Y106462D01*
X40870Y106564D01*
X40835Y106608D01*
X40804Y106653D01*
X40781Y106693D01*
X40759Y106728D01*
X40742Y106755D01*
X40728Y106777D01*
X40724Y106790D01*
X40719Y106795D01*
X40959Y106946D01*
X40999Y106879D01*
X41039Y106817D01*
X41074Y106759D01*
X41114Y106706D01*
X41150Y106657D01*
X41186Y106617D01*
X41221Y106577D01*
X41252Y106546D01*
X41310Y106493D01*
X41350Y106453D01*
X41368Y106444D01*
X41381Y106435D01*
X41385Y106426D01*
X41390D01*
X41474Y106377D01*
X41567Y106346D01*
X41656Y106320D01*
X41736Y106302D01*
X41807Y106293D01*
X41838Y106289D01*
X41865D01*
X41887Y106284D01*
X41918D01*
X42025Y106289D01*
X42122Y106302D01*
X42211Y106320D01*
X42287Y106342D01*
X42349Y106360D01*
X42393Y106377D01*
X42411Y106386D01*
X42424Y106391D01*
X42429Y106395D01*
X42433D01*
X42509Y106444D01*
X42580Y106493D01*
X42637Y106546D01*
X42691Y106595D01*
X42731Y106639D01*
X42762Y106679D01*
X42779Y106702D01*
X42784Y106710D01*
X42833Y106790D01*
X42873Y106875D01*
X42908Y106955D01*
X42935Y107030D01*
X42957Y107092D01*
X42970Y107146D01*
X42975Y107163D01*
X42979Y107177D01*
X42984Y107185D01*
Y107190D01*
X43006Y107292D01*
X43019Y107399D01*
X43033Y107501D01*
X43037Y107594D01*
X43041Y107678D01*
X43046Y107714D01*
Y107740D01*
Y107767D01*
Y107785D01*
Y107794D01*
Y107798D01*
X40804D01*
Y108025D01*
X40808Y108136D01*
X40817Y108242D01*
X40830Y108335D01*
X40844Y108420D01*
X40857Y108491D01*
X40866Y108518D01*
X40870Y108544D01*
X40875Y108562D01*
X40879Y108575D01*
X40884Y108584D01*
Y108589D01*
X40915Y108682D01*
X40950Y108771D01*
X40990Y108846D01*
X41030Y108913D01*
X41066Y108966D01*
X41092Y109006D01*
X41110Y109032D01*
X41119Y109041D01*
X41186Y109112D01*
X41256Y109179D01*
X41328Y109232D01*
X41394Y109277D01*
X41456Y109312D01*
X41505Y109339D01*
X41523Y109348D01*
X41536Y109357D01*
X41545Y109361D01*
X41550D01*
X41652Y109401D01*
X41758Y109432D01*
X41865Y109450D01*
X41967Y109468D01*
X42011Y109472D01*
X42051Y109476D01*
X42091D01*
X42122Y109481D01*
X42184D01*
X42318Y109476D01*
D02*
G37*
G36*
X48574Y110631D02*
X48498Y110622D01*
X48423Y110609D01*
X48392Y110604D01*
X48365Y110600D01*
X48347Y110595D01*
X48343D01*
X48294Y110587D01*
X48250Y110573D01*
X48214Y110564D01*
X48178Y110555D01*
X48156Y110551D01*
X48134Y110542D01*
X48125Y110538D01*
X48121D01*
X48076Y110520D01*
X48041Y110498D01*
X48014Y110476D01*
X47992Y110453D01*
X47974Y110431D01*
X47965Y110413D01*
X47956Y110405D01*
Y110400D01*
X47934Y110329D01*
X47925Y110258D01*
X47921Y110231D01*
Y110209D01*
Y110191D01*
Y110187D01*
Y106662D01*
Y106613D01*
X47930Y106573D01*
X47934Y106533D01*
X47943Y106502D01*
X47952Y106475D01*
X47961Y106457D01*
X47965Y106444D01*
X47970Y106440D01*
X47988Y106409D01*
X48010Y106382D01*
X48063Y106342D01*
X48085Y106329D01*
X48103Y106320D01*
X48116Y106311D01*
X48121D01*
X48147Y106302D01*
X48183Y106293D01*
X48254Y106280D01*
X48285Y106275D01*
X48312Y106271D01*
X48329Y106266D01*
X48338D01*
X48392Y106262D01*
X48440Y106257D01*
X48480Y106253D01*
X48516Y106249D01*
X48538D01*
X48560Y106244D01*
X48574D01*
Y106000D01*
X46514D01*
Y106244D01*
X46553D01*
X46598Y106249D01*
X46642Y106253D01*
X46682Y106257D01*
X46722D01*
X46749Y106262D01*
X46767Y106266D01*
X46775D01*
X46829Y106275D01*
X46873Y106284D01*
X46913Y106289D01*
X46944Y106298D01*
X46966Y106302D01*
X46980Y106306D01*
X46989Y106311D01*
X46993D01*
X47037Y106333D01*
X47069Y106355D01*
X47100Y106377D01*
X47117Y106400D01*
X47135Y106417D01*
X47144Y106435D01*
X47153Y106444D01*
Y106448D01*
X47175Y106519D01*
X47184Y106590D01*
X47188Y106617D01*
Y106639D01*
Y106657D01*
Y106662D01*
Y108207D01*
X46696D01*
X46545Y108011D01*
X46402Y107820D01*
X46336Y107732D01*
X46274Y107647D01*
X46212Y107567D01*
X46158Y107492D01*
X46109Y107425D01*
X46065Y107363D01*
X46025Y107310D01*
X45994Y107261D01*
X45967Y107225D01*
X45950Y107199D01*
X45936Y107181D01*
X45932Y107177D01*
X45799Y106981D01*
X45661Y106781D01*
X45528Y106586D01*
X45466Y106493D01*
X45408Y106404D01*
X45350Y106320D01*
X45301Y106240D01*
X45257Y106173D01*
X45221Y106115D01*
X45190Y106067D01*
X45164Y106031D01*
X45150Y106009D01*
X45146Y106000D01*
X43832D01*
Y106244D01*
X43907Y106249D01*
X43978Y106257D01*
X44009D01*
X44036Y106262D01*
X44054Y106266D01*
X44058D01*
X44107Y106275D01*
X44147Y106289D01*
X44187Y106302D01*
X44218Y106311D01*
X44245Y106324D01*
X44262Y106329D01*
X44276Y106337D01*
X44280D01*
X44369Y106391D01*
X44409Y106417D01*
X44449Y106440D01*
X44480Y106462D01*
X44502Y106480D01*
X44520Y106493D01*
X44524Y106497D01*
X44569Y106537D01*
X44618Y106586D01*
X44662Y106635D01*
X44706Y106684D01*
X44742Y106728D01*
X44769Y106768D01*
X44786Y106790D01*
X44795Y106799D01*
X44919Y106968D01*
X44977Y107048D01*
X45031Y107123D01*
X45084Y107194D01*
X45133Y107256D01*
X45177Y107319D01*
X45217Y107372D01*
X45252Y107421D01*
X45288Y107465D01*
X45315Y107505D01*
X45337Y107536D01*
X45355Y107563D01*
X45368Y107581D01*
X45377Y107589D01*
X45381Y107594D01*
X45474Y107723D01*
X45572Y107860D01*
X45674Y107994D01*
X45768Y108118D01*
X45812Y108176D01*
X45852Y108229D01*
X45887Y108278D01*
X45914Y108318D01*
X45941Y108353D01*
X45959Y108375D01*
X45972Y108393D01*
X45976Y108398D01*
X45883Y108429D01*
X45794Y108460D01*
X45714Y108486D01*
X45643Y108518D01*
X45586Y108544D01*
X45541Y108562D01*
X45528Y108571D01*
X45515Y108575D01*
X45510Y108580D01*
X45506D01*
X45426Y108624D01*
X45355Y108668D01*
X45292Y108708D01*
X45239Y108748D01*
X45195Y108784D01*
X45159Y108810D01*
X45142Y108833D01*
X45133Y108837D01*
X45075Y108899D01*
X45022Y108961D01*
X44977Y109024D01*
X44942Y109086D01*
X44915Y109135D01*
X44897Y109175D01*
X44884Y109201D01*
X44880Y109206D01*
Y109210D01*
X44848Y109294D01*
X44826Y109379D01*
X44813Y109463D01*
X44800Y109543D01*
X44795Y109610D01*
Y109641D01*
X44791Y109663D01*
Y109685D01*
Y109698D01*
Y109707D01*
Y109712D01*
X44795Y109823D01*
X44809Y109925D01*
X44831Y110018D01*
X44853Y110094D01*
X44880Y110160D01*
X44897Y110205D01*
X44906Y110222D01*
X44915Y110236D01*
X44919Y110240D01*
Y110245D01*
X44973Y110325D01*
X45026Y110396D01*
X45084Y110458D01*
X45137Y110507D01*
X45186Y110551D01*
X45226Y110578D01*
X45252Y110600D01*
X45257Y110604D01*
X45261D01*
X45346Y110653D01*
X45430Y110697D01*
X45510Y110733D01*
X45586Y110760D01*
X45652Y110782D01*
X45679Y110791D01*
X45705Y110795D01*
X45723Y110804D01*
X45737D01*
X45745Y110809D01*
X45750D01*
X45852Y110831D01*
X45954Y110848D01*
X46052Y110857D01*
X46141Y110866D01*
X46220Y110871D01*
X46251Y110875D01*
X48574D01*
Y110631D01*
D02*
G37*
G36*
X33393Y109792D02*
X33544Y109774D01*
X33611Y109761D01*
X33677Y109747D01*
X33740Y109734D01*
X33793Y109721D01*
X33846Y109703D01*
X33891Y109690D01*
X33931Y109676D01*
X33962Y109667D01*
X33988Y109654D01*
X34006Y109650D01*
X34019Y109641D01*
X34024D01*
X34148Y109579D01*
X34259Y109508D01*
X34352Y109437D01*
X34437Y109370D01*
X34499Y109308D01*
X34525Y109281D01*
X34548Y109259D01*
X34565Y109241D01*
X34579Y109228D01*
X34583Y109219D01*
X34588Y109215D01*
X34668Y109108D01*
X34739Y109001D01*
X34796Y108895D01*
X34841Y108802D01*
X34863Y108757D01*
X34881Y108717D01*
X34894Y108682D01*
X34903Y108651D01*
X34912Y108628D01*
X34921Y108611D01*
X34925Y108597D01*
Y108593D01*
X34961Y108464D01*
X34987Y108331D01*
X35005Y108207D01*
X35018Y108091D01*
X35023Y108038D01*
X35027Y107989D01*
Y107949D01*
X35032Y107914D01*
Y107883D01*
Y107860D01*
Y107847D01*
Y107843D01*
X35027Y107692D01*
X35014Y107545D01*
X34996Y107412D01*
X34987Y107354D01*
X34974Y107297D01*
X34965Y107248D01*
X34956Y107203D01*
X34947Y107163D01*
X34938Y107128D01*
X34929Y107101D01*
X34925Y107083D01*
X34921Y107070D01*
Y107066D01*
X34876Y106937D01*
X34823Y106817D01*
X34765Y106710D01*
X34712Y106617D01*
X34685Y106577D01*
X34659Y106542D01*
X34641Y106511D01*
X34619Y106488D01*
X34605Y106466D01*
X34592Y106453D01*
X34588Y106444D01*
X34583Y106440D01*
X34499Y106346D01*
X34406Y106266D01*
X34312Y106200D01*
X34224Y106142D01*
X34144Y106098D01*
X34113Y106076D01*
X34082Y106062D01*
X34055Y106049D01*
X34037Y106044D01*
X34028Y106035D01*
X34024D01*
X33891Y105987D01*
X33753Y105951D01*
X33620Y105924D01*
X33500Y105907D01*
X33442Y105902D01*
X33393Y105898D01*
X33349Y105893D01*
X33309D01*
X33278Y105889D01*
X33233D01*
X33087Y105893D01*
X32949Y105907D01*
X32825Y105929D01*
X32767Y105938D01*
X32714Y105951D01*
X32670Y105965D01*
X32625Y105973D01*
X32590Y105987D01*
X32559Y105996D01*
X32532Y106000D01*
X32514Y106009D01*
X32505Y106013D01*
X32501D01*
X32381Y106067D01*
X32270Y106129D01*
X32172Y106191D01*
X32088Y106249D01*
X32021Y106306D01*
X31995Y106329D01*
X31973Y106351D01*
X31950Y106369D01*
X31937Y106382D01*
X31933Y106386D01*
X31928Y106391D01*
X31848Y106488D01*
X31773Y106590D01*
X31710Y106693D01*
X31657Y106790D01*
X31617Y106875D01*
X31604Y106910D01*
X31586Y106941D01*
X31577Y106968D01*
X31568Y106986D01*
X31564Y106999D01*
Y107003D01*
X31520Y107146D01*
X31484Y107292D01*
X31462Y107434D01*
X31444Y107563D01*
X31440Y107621D01*
X31435Y107674D01*
X31431Y107723D01*
X31426Y107763D01*
Y107798D01*
Y107820D01*
Y107838D01*
Y107843D01*
X31431Y107985D01*
X31444Y108122D01*
X31462Y108247D01*
X31471Y108304D01*
X31480Y108358D01*
X31493Y108406D01*
X31502Y108451D01*
X31511Y108491D01*
X31520Y108522D01*
X31528Y108549D01*
X31533Y108566D01*
X31537Y108580D01*
Y108584D01*
X31582Y108713D01*
X31635Y108833D01*
X31688Y108939D01*
X31742Y109028D01*
X31768Y109068D01*
X31790Y109104D01*
X31813Y109135D01*
X31830Y109161D01*
X31844Y109179D01*
X31857Y109192D01*
X31861Y109201D01*
X31866Y109206D01*
X31955Y109303D01*
X32048Y109388D01*
X32141Y109463D01*
X32230Y109521D01*
X32305Y109570D01*
X32341Y109592D01*
X32368Y109605D01*
X32394Y109619D01*
X32412Y109627D01*
X32421Y109636D01*
X32425D01*
X32554Y109690D01*
X32692Y109730D01*
X32825Y109756D01*
X32954Y109778D01*
X33011Y109783D01*
X33060Y109787D01*
X33109Y109792D01*
X33149D01*
X33185Y109796D01*
X33229D01*
X33393Y109792D01*
D02*
G37*
G36*
X63174Y120638D02*
X63285Y120610D01*
X63390Y120577D01*
X63479Y120532D01*
X63546Y120488D01*
X63601Y120455D01*
X63635Y120427D01*
X63640Y120421D01*
X63646Y120416D01*
X63690Y120371D01*
X63729Y120327D01*
X63790Y120233D01*
X63835Y120138D01*
X63862Y120050D01*
X63884Y119972D01*
X63890Y119911D01*
X63895Y119889D01*
Y119872D01*
Y119861D01*
Y119855D01*
X63890Y119794D01*
X63884Y119739D01*
X63857Y119633D01*
X63818Y119533D01*
X63768Y119456D01*
X63723Y119389D01*
X63685Y119339D01*
X63657Y119311D01*
X63646Y119306D01*
Y119300D01*
X63546Y119223D01*
X63446Y119167D01*
X63346Y119128D01*
X63252Y119100D01*
X63169Y119084D01*
X63135Y119078D01*
X63107D01*
X63080Y119073D01*
X63046D01*
X62924Y119084D01*
X62808Y119106D01*
X62708Y119145D01*
X62619Y119189D01*
X62547Y119228D01*
X62497Y119267D01*
X62464Y119289D01*
X62453Y119300D01*
X62408Y119345D01*
X62369Y119389D01*
X62303Y119483D01*
X62258Y119578D01*
X62230Y119661D01*
X62208Y119739D01*
X62203Y119800D01*
X62197Y119822D01*
Y119839D01*
Y119850D01*
Y119855D01*
Y119916D01*
X62208Y119972D01*
X62236Y120083D01*
X62275Y120177D01*
X62319Y120260D01*
X62369Y120327D01*
X62408Y120377D01*
X62436Y120405D01*
X62441Y120416D01*
X62447D01*
X62547Y120493D01*
X62647Y120549D01*
X62747Y120593D01*
X62841Y120621D01*
X62924Y120638D01*
X62958Y120643D01*
X62985D01*
X63013Y120649D01*
X63046D01*
X63174Y120638D01*
D02*
G37*
G36*
X56348Y120532D02*
Y120222D01*
X56248Y120210D01*
X56198Y120205D01*
X56153Y120194D01*
X56114Y120188D01*
X56087Y120183D01*
X56064Y120177D01*
X56059D01*
X55998Y120166D01*
X55948Y120149D01*
X55909Y120133D01*
X55870Y120122D01*
X55843Y120110D01*
X55826Y120099D01*
X55815Y120088D01*
X55809D01*
X55770Y120055D01*
X55731Y120022D01*
X55676Y119944D01*
X55654Y119911D01*
X55637Y119883D01*
X55632Y119861D01*
X55626Y119855D01*
X55604Y119800D01*
X55587Y119750D01*
X55576Y119700D01*
X55565Y119655D01*
Y119617D01*
X55559Y119589D01*
Y119572D01*
Y119567D01*
Y114777D01*
Y114722D01*
X55565Y114666D01*
X55576Y114622D01*
X55582Y114588D01*
X55593Y114555D01*
X55604Y114533D01*
X55609Y114522D01*
Y114516D01*
X55632Y114483D01*
X55659Y114455D01*
X55720Y114411D01*
X55754Y114394D01*
X55776Y114383D01*
X55792Y114372D01*
X55798D01*
X55865Y114355D01*
X55926Y114339D01*
X55948Y114333D01*
X55970D01*
X55981Y114327D01*
X55987D01*
X56064Y114322D01*
X56137Y114316D01*
X56164Y114311D01*
X56203D01*
Y114000D01*
X53584D01*
Y114311D01*
X53656Y114322D01*
X53722Y114333D01*
X53750Y114339D01*
X53772Y114344D01*
X53783Y114350D01*
X53789D01*
X53861Y114377D01*
X53917Y114400D01*
X53933Y114411D01*
X53950Y114416D01*
X53956Y114422D01*
X53961D01*
X54000Y114444D01*
X54033Y114472D01*
X54055Y114494D01*
X54078Y114522D01*
X54094Y114538D01*
X54105Y114555D01*
X54111Y114566D01*
Y114572D01*
X54122Y114611D01*
X54128Y114649D01*
X54139Y114733D01*
X54144Y114771D01*
Y114799D01*
Y114821D01*
Y114827D01*
Y117136D01*
X54105Y117186D01*
X54066Y117241D01*
X54050Y117258D01*
X54033Y117274D01*
X54028Y117286D01*
X54022Y117291D01*
X53956Y117358D01*
X53894Y117413D01*
X53867Y117435D01*
X53844Y117452D01*
X53828Y117463D01*
X53822Y117469D01*
X53717Y117535D01*
X53667Y117558D01*
X53623Y117580D01*
X53584Y117596D01*
X53556Y117607D01*
X53534Y117619D01*
X53528D01*
X53417Y117652D01*
X53362Y117663D01*
X53312Y117669D01*
X53267Y117674D01*
X53206D01*
X53101Y117663D01*
X53001Y117641D01*
X52923Y117602D01*
X52857Y117563D01*
X52801Y117524D01*
X52768Y117485D01*
X52740Y117463D01*
X52735Y117452D01*
X52679Y117358D01*
X52640Y117258D01*
X52607Y117147D01*
X52590Y117041D01*
X52579Y116941D01*
X52574Y116903D01*
X52568Y116864D01*
Y116836D01*
Y116814D01*
Y116797D01*
Y116792D01*
Y114777D01*
Y114716D01*
X52574Y114660D01*
X52579Y114616D01*
X52585Y114577D01*
X52596Y114550D01*
X52601Y114527D01*
X52607Y114516D01*
Y114511D01*
X52646Y114450D01*
X52684Y114411D01*
X52718Y114383D01*
X52729Y114372D01*
X52735D01*
X52757Y114361D01*
X52784Y114355D01*
X52840Y114339D01*
X52868Y114333D01*
X52890D01*
X52901Y114327D01*
X52907D01*
X52984Y114322D01*
X53051Y114316D01*
X53073Y114311D01*
X53106D01*
Y114000D01*
X50526D01*
Y114311D01*
X50620Y114322D01*
X50659Y114333D01*
X50692Y114339D01*
X50720Y114344D01*
X50742D01*
X50753Y114350D01*
X50759D01*
X50825Y114372D01*
X50881Y114389D01*
X50903Y114400D01*
X50920Y114405D01*
X50925Y114411D01*
X50931D01*
X50975Y114433D01*
X51014Y114455D01*
X51042Y114483D01*
X51069Y114505D01*
X51086Y114527D01*
X51097Y114544D01*
X51108Y114555D01*
Y114560D01*
X51125Y114599D01*
X51136Y114638D01*
X51147Y114722D01*
X51153Y114760D01*
Y114788D01*
Y114810D01*
Y114816D01*
Y116925D01*
X51158Y117041D01*
X51169Y117158D01*
X51186Y117263D01*
X51208Y117363D01*
X51236Y117458D01*
X51264Y117541D01*
X51297Y117619D01*
X51330Y117691D01*
X51364Y117757D01*
X51397Y117813D01*
X51425Y117863D01*
X51452Y117902D01*
X51475Y117935D01*
X51491Y117957D01*
X51502Y117968D01*
X51508Y117974D01*
X51574Y118046D01*
X51652Y118107D01*
X51736Y118163D01*
X51819Y118207D01*
X51902Y118246D01*
X51991Y118279D01*
X52080Y118307D01*
X52163Y118329D01*
X52241Y118346D01*
X52313Y118357D01*
X52379Y118368D01*
X52435Y118373D01*
X52485Y118379D01*
X52551D01*
X52657Y118373D01*
X52762Y118368D01*
X52857Y118357D01*
X52934Y118340D01*
X53006Y118324D01*
X53056Y118312D01*
X53090Y118307D01*
X53095Y118301D01*
X53101D01*
X53190Y118273D01*
X53273Y118246D01*
X53345Y118218D01*
X53406Y118190D01*
X53450Y118163D01*
X53489Y118146D01*
X53512Y118135D01*
X53517Y118129D01*
X53584Y118085D01*
X53645Y118040D01*
X53700Y117996D01*
X53750Y117963D01*
X53789Y117929D01*
X53817Y117907D01*
X53833Y117891D01*
X53839Y117885D01*
X53939Y117796D01*
X53989Y117752D01*
X54033Y117713D01*
X54072Y117674D01*
X54100Y117646D01*
X54122Y117630D01*
X54128Y117624D01*
X54144D01*
Y120571D01*
X54211Y120643D01*
X56348Y120532D01*
D02*
G37*
G36*
X28864Y118373D02*
X28964Y118368D01*
X29058Y118357D01*
X29141Y118346D01*
X29208Y118329D01*
X29258Y118318D01*
X29291Y118312D01*
X29297Y118307D01*
X29302D01*
X29391Y118279D01*
X29469Y118251D01*
X29535Y118224D01*
X29596Y118196D01*
X29641Y118174D01*
X29680Y118151D01*
X29702Y118140D01*
X29708Y118135D01*
X29763Y118101D01*
X29818Y118063D01*
X29869Y118018D01*
X29918Y117985D01*
X29957Y117946D01*
X29991Y117924D01*
X30013Y117902D01*
X30018Y117896D01*
X30079Y117841D01*
X30135Y117791D01*
X30179Y117752D01*
X30224Y117713D01*
X30257Y117680D01*
X30279Y117657D01*
X30296Y117646D01*
X30301Y117641D01*
X30318D01*
Y118246D01*
X30385Y118312D01*
X32433Y118201D01*
Y117891D01*
X32333Y117874D01*
X32288Y117868D01*
X32255Y117857D01*
X32222Y117852D01*
X32199Y117846D01*
X32183Y117841D01*
X32177D01*
X32094Y117813D01*
X32061Y117796D01*
X32033Y117785D01*
X32011Y117774D01*
X31989Y117763D01*
X31983Y117752D01*
X31977D01*
X31939Y117724D01*
X31911Y117691D01*
X31855Y117624D01*
X31833Y117591D01*
X31817Y117569D01*
X31811Y117552D01*
X31805Y117546D01*
X31778Y117497D01*
X31761Y117452D01*
X31744Y117408D01*
X31739Y117363D01*
X31733Y117330D01*
X31728Y117302D01*
Y117286D01*
Y117280D01*
Y114777D01*
Y114722D01*
X31739Y114666D01*
X31744Y114622D01*
X31756Y114588D01*
X31767Y114555D01*
X31772Y114533D01*
X31783Y114522D01*
Y114516D01*
X31805Y114483D01*
X31833Y114455D01*
X31894Y114411D01*
X31927Y114394D01*
X31950Y114383D01*
X31966Y114372D01*
X31972D01*
X32033Y114355D01*
X32094Y114339D01*
X32116Y114333D01*
X32138D01*
X32149Y114327D01*
X32155D01*
X32233Y114322D01*
X32305Y114316D01*
X32333Y114311D01*
X32372D01*
Y114000D01*
X29796D01*
Y114311D01*
X29869Y114322D01*
X29930Y114333D01*
X29952Y114339D01*
X29968Y114344D01*
X29980Y114350D01*
X29985D01*
X30046Y114377D01*
X30096Y114400D01*
X30135Y114416D01*
X30140Y114422D01*
X30146D01*
X30179Y114444D01*
X30207Y114466D01*
X30251Y114516D01*
X30268Y114538D01*
X30279Y114555D01*
X30285Y114566D01*
Y114572D01*
X30301Y114655D01*
X30312Y114738D01*
X30318Y114771D01*
Y114799D01*
Y114821D01*
Y114827D01*
Y117136D01*
X30279Y117186D01*
X30246Y117236D01*
X30229Y117252D01*
X30218Y117269D01*
X30207Y117280D01*
Y117286D01*
X30146Y117352D01*
X30085Y117413D01*
X30057Y117435D01*
X30035Y117452D01*
X30018Y117463D01*
X30013Y117469D01*
X29918Y117530D01*
X29874Y117552D01*
X29835Y117574D01*
X29796Y117591D01*
X29769Y117602D01*
X29752Y117613D01*
X29746D01*
X29691Y117635D01*
X29635Y117646D01*
X29580Y117657D01*
X29530Y117669D01*
X29485D01*
X29452Y117674D01*
X29419D01*
X29313Y117663D01*
X29225Y117641D01*
X29147Y117602D01*
X29086Y117563D01*
X29036Y117524D01*
X28997Y117485D01*
X28975Y117463D01*
X28969Y117452D01*
X28914Y117358D01*
X28875Y117252D01*
X28847Y117141D01*
X28831Y117036D01*
X28814Y116936D01*
Y116897D01*
X28808Y116858D01*
Y116831D01*
Y116808D01*
Y116792D01*
Y116786D01*
Y114777D01*
Y114716D01*
X28814Y114660D01*
X28820Y114616D01*
Y114577D01*
X28825Y114550D01*
X28831Y114527D01*
X28836Y114516D01*
Y114511D01*
X28847Y114477D01*
X28870Y114450D01*
X28908Y114411D01*
X28942Y114383D01*
X28953Y114372D01*
X28958D01*
X28980Y114361D01*
X29008Y114355D01*
X29064Y114339D01*
X29092Y114333D01*
X29114D01*
X29125Y114327D01*
X29130D01*
X29208Y114322D01*
X29263Y114316D01*
X29286Y114311D01*
X29319D01*
Y114000D01*
X26883D01*
Y114311D01*
X26955Y114322D01*
X27016Y114333D01*
X27038Y114339D01*
X27055Y114344D01*
X27066Y114350D01*
X27071D01*
X27132Y114377D01*
X27182Y114400D01*
X27216Y114416D01*
X27221Y114422D01*
X27227D01*
X27288Y114466D01*
X27327Y114516D01*
X27343Y114538D01*
X27354Y114555D01*
X27360Y114566D01*
Y114572D01*
X27376Y114655D01*
X27388Y114738D01*
X27393Y114771D01*
Y114799D01*
Y114821D01*
Y114827D01*
Y117136D01*
X27354Y117186D01*
X27321Y117236D01*
X27304Y117252D01*
X27293Y117269D01*
X27282Y117280D01*
Y117286D01*
X27221Y117352D01*
X27160Y117413D01*
X27132Y117435D01*
X27110Y117452D01*
X27093Y117463D01*
X27088Y117469D01*
X26994Y117530D01*
X26949Y117552D01*
X26910Y117574D01*
X26871Y117591D01*
X26844Y117602D01*
X26827Y117613D01*
X26822D01*
X26766Y117635D01*
X26711Y117646D01*
X26655Y117657D01*
X26605Y117669D01*
X26561D01*
X26527Y117674D01*
X26494D01*
X26389Y117663D01*
X26300Y117641D01*
X26222Y117602D01*
X26161Y117563D01*
X26111Y117524D01*
X26072Y117485D01*
X26050Y117463D01*
X26044Y117452D01*
X25989Y117358D01*
X25950Y117252D01*
X25922Y117141D01*
X25906Y117036D01*
X25889Y116936D01*
Y116897D01*
X25884Y116858D01*
Y116831D01*
Y116808D01*
Y116792D01*
Y116786D01*
Y114777D01*
Y114722D01*
X25889Y114666D01*
X25895Y114622D01*
Y114588D01*
X25900Y114555D01*
X25906Y114533D01*
X25911Y114522D01*
Y114516D01*
X25922Y114483D01*
X25945Y114450D01*
X25984Y114405D01*
X26017Y114383D01*
X26028Y114372D01*
X26033D01*
X26089Y114350D01*
X26144Y114339D01*
X26167Y114333D01*
X26189Y114327D01*
X26206D01*
X26278Y114322D01*
X26339Y114316D01*
X26361D01*
X26377Y114311D01*
X26394D01*
Y114000D01*
X23847D01*
Y114311D01*
X23941Y114322D01*
X23980Y114327D01*
X24013Y114333D01*
X24047Y114339D01*
X24069Y114344D01*
X24080Y114350D01*
X24085D01*
X24152Y114372D01*
X24207Y114394D01*
X24241Y114405D01*
X24246Y114411D01*
X24252D01*
X24296Y114433D01*
X24330Y114455D01*
X24357Y114477D01*
X24385Y114499D01*
X24402Y114522D01*
X24413Y114538D01*
X24424Y114550D01*
Y114555D01*
X24441Y114594D01*
X24452Y114638D01*
X24463Y114722D01*
X24468Y114760D01*
Y114788D01*
Y114810D01*
Y114816D01*
Y116908D01*
X24474Y117036D01*
X24485Y117158D01*
X24502Y117269D01*
X24524Y117374D01*
X24552Y117474D01*
X24579Y117563D01*
X24613Y117641D01*
X24640Y117719D01*
X24674Y117780D01*
X24707Y117841D01*
X24735Y117885D01*
X24762Y117924D01*
X24785Y117957D01*
X24801Y117979D01*
X24812Y117991D01*
X24818Y117996D01*
X24885Y118063D01*
X24962Y118124D01*
X25040Y118174D01*
X25123Y118218D01*
X25207Y118257D01*
X25290Y118285D01*
X25367Y118312D01*
X25451Y118329D01*
X25523Y118346D01*
X25595Y118357D01*
X25656Y118368D01*
X25712Y118373D01*
X25756Y118379D01*
X25817D01*
X25922Y118373D01*
X26028Y118368D01*
X26122Y118357D01*
X26206Y118340D01*
X26272Y118324D01*
X26328Y118312D01*
X26361Y118307D01*
X26366Y118301D01*
X26372D01*
X26466Y118273D01*
X26550Y118246D01*
X26622Y118212D01*
X26683Y118185D01*
X26733Y118163D01*
X26772Y118140D01*
X26794Y118129D01*
X26799Y118124D01*
X26855Y118085D01*
X26916Y118046D01*
X26971Y118001D01*
X27021Y117963D01*
X27066Y117924D01*
X27099Y117896D01*
X27121Y117874D01*
X27132Y117868D01*
X27193Y117813D01*
X27254Y117763D01*
X27304Y117713D01*
X27349Y117674D01*
X27382Y117641D01*
X27410Y117619D01*
X27426Y117602D01*
X27432Y117596D01*
X27471D01*
X27532Y117724D01*
X27604Y117835D01*
X27682Y117929D01*
X27754Y118013D01*
X27826Y118079D01*
X27882Y118124D01*
X27904Y118140D01*
X27920Y118151D01*
X27931Y118163D01*
X27937D01*
X28065Y118235D01*
X28203Y118290D01*
X28337Y118329D01*
X28470Y118351D01*
X28525Y118362D01*
X28581Y118368D01*
X28631Y118373D01*
X28670D01*
X28703Y118379D01*
X28753D01*
X28864Y118373D01*
D02*
G37*
G36*
X49593Y118240D02*
X50381D01*
Y117774D01*
X49610D01*
Y115138D01*
X49604Y115027D01*
X49593Y114927D01*
X49582Y114827D01*
X49560Y114738D01*
X49538Y114655D01*
X49510Y114577D01*
X49477Y114505D01*
X49449Y114444D01*
X49421Y114389D01*
X49388Y114339D01*
X49360Y114300D01*
X49338Y114266D01*
X49316Y114239D01*
X49299Y114222D01*
X49294Y114211D01*
X49288Y114205D01*
X49221Y114150D01*
X49149Y114100D01*
X49077Y114056D01*
X48994Y114022D01*
X48910Y113989D01*
X48827Y113961D01*
X48666Y113922D01*
X48594Y113911D01*
X48522Y113900D01*
X48461Y113895D01*
X48406Y113889D01*
X48355Y113883D01*
X48294D01*
X48128Y113889D01*
X47984Y113900D01*
X47850Y113911D01*
X47739Y113933D01*
X47695Y113939D01*
X47651Y113950D01*
X47612Y113956D01*
X47584Y113961D01*
X47562Y113967D01*
X47545Y113972D01*
X47534Y113978D01*
X47529D01*
X47412Y114017D01*
X47301Y114050D01*
X47201Y114089D01*
X47112Y114122D01*
X47040Y114150D01*
X46985Y114172D01*
X46962Y114183D01*
X46946Y114189D01*
X46940Y114194D01*
X46935D01*
Y114555D01*
X46974Y114550D01*
X47018Y114538D01*
X47112Y114527D01*
X47157Y114522D01*
X47196D01*
X47218Y114516D01*
X47229D01*
X47301Y114511D01*
X47368Y114505D01*
X47423D01*
X47467Y114499D01*
X47551D01*
X47678Y114511D01*
X47784Y114533D01*
X47873Y114566D01*
X47939Y114605D01*
X47995Y114638D01*
X48028Y114672D01*
X48050Y114694D01*
X48056Y114705D01*
X48078Y114749D01*
X48100Y114794D01*
X48134Y114905D01*
X48161Y115027D01*
X48178Y115143D01*
X48189Y115249D01*
Y115299D01*
X48195Y115338D01*
Y115371D01*
Y115399D01*
Y115415D01*
Y115421D01*
Y117774D01*
X46990D01*
Y118240D01*
X48206D01*
Y119539D01*
X49593D01*
Y118240D01*
D02*
G37*
G36*
X17309D02*
X18097D01*
Y117774D01*
X17325D01*
Y115138D01*
X17320Y115027D01*
X17309Y114927D01*
X17298Y114827D01*
X17276Y114738D01*
X17253Y114655D01*
X17226Y114577D01*
X17192Y114505D01*
X17165Y114444D01*
X17137Y114389D01*
X17104Y114339D01*
X17076Y114300D01*
X17053Y114266D01*
X17031Y114239D01*
X17015Y114222D01*
X17009Y114211D01*
X17004Y114205D01*
X16937Y114150D01*
X16865Y114100D01*
X16793Y114056D01*
X16709Y114022D01*
X16626Y113989D01*
X16543Y113961D01*
X16382Y113922D01*
X16310Y113911D01*
X16238Y113900D01*
X16177Y113895D01*
X16121Y113889D01*
X16071Y113883D01*
X16010D01*
X15844Y113889D01*
X15699Y113900D01*
X15566Y113911D01*
X15455Y113933D01*
X15411Y113939D01*
X15366Y113950D01*
X15327Y113956D01*
X15300Y113961D01*
X15278Y113967D01*
X15261Y113972D01*
X15250Y113978D01*
X15244D01*
X15128Y114017D01*
X15017Y114050D01*
X14917Y114089D01*
X14828Y114122D01*
X14756Y114150D01*
X14700Y114172D01*
X14678Y114183D01*
X14661Y114189D01*
X14656Y114194D01*
X14650D01*
Y114555D01*
X14689Y114550D01*
X14734Y114538D01*
X14828Y114527D01*
X14872Y114522D01*
X14911D01*
X14933Y114516D01*
X14944D01*
X15017Y114511D01*
X15083Y114505D01*
X15139D01*
X15183Y114499D01*
X15266D01*
X15394Y114511D01*
X15499Y114533D01*
X15588Y114566D01*
X15655Y114605D01*
X15710Y114638D01*
X15744Y114672D01*
X15766Y114694D01*
X15771Y114705D01*
X15794Y114749D01*
X15816Y114794D01*
X15849Y114905D01*
X15877Y115027D01*
X15894Y115143D01*
X15905Y115249D01*
Y115299D01*
X15910Y115338D01*
Y115371D01*
Y115399D01*
Y115415D01*
Y115421D01*
Y117774D01*
X14706D01*
Y118240D01*
X15921D01*
Y119539D01*
X17309D01*
Y118240D01*
D02*
G37*
G36*
X35191Y118373D02*
X35380Y118351D01*
X35546Y118318D01*
X35624Y118301D01*
X35696Y118285D01*
X35757Y118262D01*
X35813Y118246D01*
X35862Y118229D01*
X35907Y118218D01*
X35940Y118201D01*
X35962Y118196D01*
X35979Y118185D01*
X35985D01*
X36145Y118107D01*
X36284Y118029D01*
X36412Y117946D01*
X36517Y117868D01*
X36567Y117835D01*
X36606Y117802D01*
X36639Y117774D01*
X36667Y117746D01*
X36695Y117724D01*
X36712Y117707D01*
X36717Y117702D01*
X36723Y117696D01*
X36828Y117574D01*
X36917Y117452D01*
X36995Y117330D01*
X37061Y117219D01*
X37111Y117125D01*
X37133Y117080D01*
X37150Y117047D01*
X37161Y117019D01*
X37172Y116997D01*
X37178Y116986D01*
Y116980D01*
X37233Y116831D01*
X37272Y116681D01*
X37300Y116542D01*
X37317Y116414D01*
X37328Y116353D01*
Y116303D01*
X37333Y116259D01*
X37339Y116220D01*
Y116187D01*
Y116165D01*
Y116148D01*
Y116142D01*
X37333Y115965D01*
X37317Y115793D01*
X37294Y115643D01*
X37278Y115571D01*
X37267Y115510D01*
X37255Y115449D01*
X37239Y115393D01*
X37228Y115349D01*
X37217Y115310D01*
X37206Y115282D01*
X37200Y115254D01*
X37194Y115243D01*
Y115238D01*
X37133Y115088D01*
X37061Y114955D01*
X36984Y114832D01*
X36911Y114727D01*
X36845Y114638D01*
X36817Y114605D01*
X36795Y114577D01*
X36773Y114555D01*
X36756Y114538D01*
X36751Y114527D01*
X36745Y114522D01*
X36628Y114416D01*
X36501Y114316D01*
X36373Y114233D01*
X36251Y114166D01*
X36145Y114111D01*
X36101Y114089D01*
X36062Y114072D01*
X36029Y114056D01*
X36007Y114050D01*
X35990Y114039D01*
X35985D01*
X35801Y113978D01*
X35618Y113939D01*
X35430Y113906D01*
X35258Y113883D01*
X35180Y113878D01*
X35108Y113872D01*
X35047Y113867D01*
X34991D01*
X34947Y113861D01*
X34886D01*
X34747Y113867D01*
X34619Y113872D01*
X34503Y113889D01*
X34403Y113906D01*
X34320Y113917D01*
X34286Y113928D01*
X34258Y113933D01*
X34236Y113939D01*
X34220D01*
X34214Y113944D01*
X34209D01*
X34098Y113978D01*
X33992Y114017D01*
X33892Y114061D01*
X33809Y114100D01*
X33731Y114133D01*
X33676Y114161D01*
X33654Y114172D01*
X33637Y114183D01*
X33631Y114189D01*
X33626D01*
X33526Y114250D01*
X33437Y114311D01*
X33354Y114377D01*
X33282Y114433D01*
X33226Y114483D01*
X33182Y114527D01*
X33154Y114550D01*
X33143Y114560D01*
X33065Y114644D01*
X32999Y114722D01*
X32932Y114799D01*
X32882Y114871D01*
X32838Y114932D01*
X32804Y114982D01*
X32782Y115010D01*
X32777Y115021D01*
X33104Y115260D01*
X33193Y115138D01*
X33287Y115027D01*
X33382Y114932D01*
X33465Y114849D01*
X33543Y114783D01*
X33604Y114733D01*
X33626Y114716D01*
X33643Y114705D01*
X33654Y114694D01*
X33659D01*
X33781Y114622D01*
X33909Y114566D01*
X34031Y114533D01*
X34142Y114505D01*
X34236Y114488D01*
X34275Y114483D01*
X34314D01*
X34342Y114477D01*
X34381D01*
X34514Y114483D01*
X34636Y114499D01*
X34753Y114522D01*
X34858Y114550D01*
X34958Y114583D01*
X35047Y114622D01*
X35124Y114660D01*
X35197Y114705D01*
X35258Y114749D01*
X35313Y114788D01*
X35357Y114827D01*
X35391Y114860D01*
X35418Y114888D01*
X35441Y114916D01*
X35452Y114927D01*
X35457Y114932D01*
X35518Y115021D01*
X35568Y115121D01*
X35613Y115226D01*
X35652Y115338D01*
X35685Y115449D01*
X35713Y115559D01*
X35752Y115776D01*
X35768Y115876D01*
X35779Y115970D01*
X35785Y116059D01*
X35790Y116131D01*
X35796Y116192D01*
Y116237D01*
Y116264D01*
Y116276D01*
X32893D01*
Y116553D01*
X32899Y116686D01*
X32910Y116814D01*
X32932Y116936D01*
X32949Y117036D01*
X32971Y117125D01*
X32982Y117158D01*
X32993Y117191D01*
X32999Y117213D01*
X33004Y117230D01*
X33010Y117241D01*
Y117247D01*
X33054Y117369D01*
X33110Y117480D01*
X33171Y117580D01*
X33226Y117663D01*
X33282Y117735D01*
X33326Y117785D01*
X33354Y117818D01*
X33359Y117830D01*
X33365D01*
X33465Y117918D01*
X33570Y118001D01*
X33681Y118068D01*
X33781Y118124D01*
X33870Y118168D01*
X33909Y118190D01*
X33942Y118201D01*
X33970Y118212D01*
X33992Y118224D01*
X34003Y118229D01*
X34009D01*
X34159Y118279D01*
X34325Y118318D01*
X34486Y118340D01*
X34642Y118362D01*
X34714Y118368D01*
X34780Y118373D01*
X34841D01*
X34891Y118379D01*
X34991D01*
X35191Y118373D01*
D02*
G37*
G36*
X12147D02*
X12336Y118351D01*
X12503Y118318D01*
X12580Y118301D01*
X12652Y118285D01*
X12713Y118262D01*
X12769Y118246D01*
X12819Y118229D01*
X12863Y118218D01*
X12897Y118201D01*
X12919Y118196D01*
X12935Y118185D01*
X12941D01*
X13102Y118107D01*
X13241Y118029D01*
X13368Y117946D01*
X13474Y117868D01*
X13524Y117835D01*
X13563Y117802D01*
X13596Y117774D01*
X13624Y117746D01*
X13651Y117724D01*
X13668Y117707D01*
X13674Y117702D01*
X13679Y117696D01*
X13785Y117574D01*
X13873Y117452D01*
X13951Y117330D01*
X14018Y117219D01*
X14068Y117125D01*
X14090Y117080D01*
X14107Y117047D01*
X14118Y117019D01*
X14129Y116997D01*
X14134Y116986D01*
Y116980D01*
X14190Y116831D01*
X14229Y116681D01*
X14256Y116542D01*
X14273Y116414D01*
X14284Y116353D01*
Y116303D01*
X14290Y116259D01*
X14295Y116220D01*
Y116187D01*
Y116165D01*
Y116148D01*
Y116142D01*
X14290Y115965D01*
X14273Y115793D01*
X14251Y115643D01*
X14234Y115571D01*
X14223Y115510D01*
X14212Y115449D01*
X14195Y115393D01*
X14184Y115349D01*
X14173Y115310D01*
X14162Y115282D01*
X14156Y115254D01*
X14151Y115243D01*
Y115238D01*
X14090Y115088D01*
X14018Y114955D01*
X13940Y114832D01*
X13868Y114727D01*
X13801Y114638D01*
X13773Y114605D01*
X13751Y114577D01*
X13729Y114555D01*
X13712Y114538D01*
X13707Y114527D01*
X13701Y114522D01*
X13585Y114416D01*
X13457Y114316D01*
X13329Y114233D01*
X13207Y114166D01*
X13102Y114111D01*
X13058Y114089D01*
X13019Y114072D01*
X12985Y114056D01*
X12963Y114050D01*
X12946Y114039D01*
X12941D01*
X12758Y113978D01*
X12575Y113939D01*
X12386Y113906D01*
X12214Y113883D01*
X12136Y113878D01*
X12064Y113872D01*
X12003Y113867D01*
X11947D01*
X11903Y113861D01*
X11842D01*
X11703Y113867D01*
X11576Y113872D01*
X11459Y113889D01*
X11359Y113906D01*
X11276Y113917D01*
X11243Y113928D01*
X11215Y113933D01*
X11193Y113939D01*
X11176D01*
X11170Y113944D01*
X11165D01*
X11054Y113978D01*
X10949Y114017D01*
X10849Y114061D01*
X10765Y114100D01*
X10688Y114133D01*
X10632Y114161D01*
X10610Y114172D01*
X10593Y114183D01*
X10588Y114189D01*
X10582D01*
X10482Y114250D01*
X10394Y114311D01*
X10310Y114377D01*
X10238Y114433D01*
X10183Y114483D01*
X10138Y114527D01*
X10110Y114550D01*
X10099Y114560D01*
X10022Y114644D01*
X9955Y114722D01*
X9888Y114799D01*
X9838Y114871D01*
X9794Y114932D01*
X9761Y114982D01*
X9739Y115010D01*
X9733Y115021D01*
X10061Y115260D01*
X10149Y115138D01*
X10244Y115027D01*
X10338Y114932D01*
X10421Y114849D01*
X10499Y114783D01*
X10560Y114733D01*
X10582Y114716D01*
X10599Y114705D01*
X10610Y114694D01*
X10616D01*
X10738Y114622D01*
X10865Y114566D01*
X10987Y114533D01*
X11098Y114505D01*
X11193Y114488D01*
X11232Y114483D01*
X11270D01*
X11298Y114477D01*
X11337D01*
X11470Y114483D01*
X11592Y114499D01*
X11709Y114522D01*
X11814Y114550D01*
X11914Y114583D01*
X12003Y114622D01*
X12081Y114660D01*
X12153Y114705D01*
X12214Y114749D01*
X12269Y114788D01*
X12314Y114827D01*
X12347Y114860D01*
X12375Y114888D01*
X12397Y114916D01*
X12408Y114927D01*
X12414Y114932D01*
X12475Y115021D01*
X12525Y115121D01*
X12569Y115226D01*
X12608Y115338D01*
X12641Y115449D01*
X12669Y115559D01*
X12708Y115776D01*
X12724Y115876D01*
X12736Y115970D01*
X12741Y116059D01*
X12747Y116131D01*
X12752Y116192D01*
Y116237D01*
Y116264D01*
Y116276D01*
X9850D01*
Y116553D01*
X9855Y116686D01*
X9866Y116814D01*
X9888Y116936D01*
X9905Y117036D01*
X9927Y117125D01*
X9938Y117158D01*
X9950Y117191D01*
X9955Y117213D01*
X9961Y117230D01*
X9966Y117241D01*
Y117247D01*
X10011Y117369D01*
X10066Y117480D01*
X10127Y117580D01*
X10183Y117663D01*
X10238Y117735D01*
X10283Y117785D01*
X10310Y117818D01*
X10316Y117830D01*
X10321D01*
X10421Y117918D01*
X10527Y118001D01*
X10638Y118068D01*
X10738Y118124D01*
X10826Y118168D01*
X10865Y118190D01*
X10899Y118201D01*
X10926Y118212D01*
X10949Y118224D01*
X10960Y118229D01*
X10965D01*
X11115Y118279D01*
X11282Y118318D01*
X11443Y118340D01*
X11598Y118362D01*
X11670Y118368D01*
X11737Y118373D01*
X11798D01*
X11848Y118379D01*
X11947D01*
X12147Y118373D01*
D02*
G37*
G36*
X70267Y119761D02*
X70223Y119750D01*
X70173Y119744D01*
X70078Y119722D01*
X70034Y119711D01*
X70000Y119705D01*
X69978Y119700D01*
X69973D01*
X69906Y119689D01*
X69845Y119672D01*
X69790Y119655D01*
X69740Y119639D01*
X69701Y119628D01*
X69673Y119617D01*
X69656Y119611D01*
X69651Y119606D01*
X69590Y119578D01*
X69540Y119544D01*
X69501Y119511D01*
X69468Y119483D01*
X69451Y119461D01*
X69434Y119439D01*
X69423Y119428D01*
Y119422D01*
X69396Y119339D01*
X69379Y119256D01*
X69373Y119223D01*
Y119195D01*
Y119173D01*
Y119167D01*
Y114866D01*
Y114805D01*
X69384Y114755D01*
X69390Y114705D01*
X69401Y114666D01*
X69412Y114633D01*
X69423Y114611D01*
X69429Y114594D01*
X69434Y114588D01*
X69462Y114550D01*
X69495Y114516D01*
X69568Y114466D01*
X69601Y114450D01*
X69623Y114438D01*
X69645Y114427D01*
X69651D01*
X69679Y114416D01*
X69723Y114405D01*
X69806Y114389D01*
X69851Y114383D01*
X69884Y114377D01*
X69906Y114372D01*
X69917D01*
X69989Y114361D01*
X70056Y114355D01*
X70117Y114350D01*
X70167Y114344D01*
X70211Y114339D01*
X70239Y114333D01*
X70267D01*
Y114000D01*
X64656D01*
X64534Y115954D01*
X64845D01*
X64900Y115826D01*
X64961Y115698D01*
X65022Y115576D01*
X65083Y115465D01*
X65133Y115365D01*
X65155Y115326D01*
X65178Y115288D01*
X65194Y115260D01*
X65205Y115238D01*
X65211Y115226D01*
X65216Y115221D01*
X65300Y115082D01*
X65383Y114960D01*
X65461Y114855D01*
X65527Y114766D01*
X65583Y114694D01*
X65627Y114644D01*
X65655Y114616D01*
X65666Y114605D01*
X65727Y114555D01*
X65799Y114516D01*
X65877Y114488D01*
X65949Y114466D01*
X66021Y114450D01*
X66077Y114438D01*
X66099Y114433D01*
X66115Y114427D01*
X66132D01*
X66254Y114416D01*
X66371Y114405D01*
X66482Y114400D01*
X66587Y114394D01*
X66671Y114389D01*
X66920D01*
X67031Y114394D01*
X67126D01*
X67203Y114400D01*
X67264Y114405D01*
X67309D01*
X67336Y114411D01*
X67348D01*
X67420Y114422D01*
X67481Y114438D01*
X67536Y114455D01*
X67575Y114472D01*
X67614Y114488D01*
X67636Y114505D01*
X67653Y114511D01*
X67658Y114516D01*
X67697Y114550D01*
X67731Y114588D01*
X67758Y114627D01*
X67781Y114666D01*
X67797Y114699D01*
X67808Y114727D01*
X67814Y114749D01*
Y114755D01*
X67825Y114821D01*
X67830Y114894D01*
X67842Y114971D01*
Y115043D01*
X67847Y115104D01*
Y115160D01*
Y115193D01*
Y115199D01*
Y115204D01*
Y119211D01*
X67836Y119317D01*
X67830Y119361D01*
X67819Y119400D01*
X67808Y119433D01*
X67803Y119456D01*
X67792Y119472D01*
Y119478D01*
X67764Y119522D01*
X67731Y119555D01*
X67697Y119589D01*
X67658Y119611D01*
X67625Y119633D01*
X67597Y119644D01*
X67575Y119655D01*
X67570D01*
X67459Y119683D01*
X67409Y119694D01*
X67359Y119705D01*
X67314Y119711D01*
X67281Y119717D01*
X67253Y119722D01*
X67248D01*
X67181Y119728D01*
X67115Y119739D01*
X67059Y119744D01*
X67015Y119750D01*
X66976Y119755D01*
X66943Y119761D01*
X66920D01*
Y120094D01*
X70267D01*
Y119761D01*
D02*
G37*
G36*
X64395Y118201D02*
Y117891D01*
X64295Y117874D01*
X64251Y117863D01*
X64206Y117852D01*
X64167Y117841D01*
X64140Y117830D01*
X64117Y117824D01*
X64112D01*
X64056Y117807D01*
X64012Y117791D01*
X63968Y117774D01*
X63934Y117763D01*
X63912Y117746D01*
X63895Y117741D01*
X63884Y117730D01*
X63879D01*
X63807Y117669D01*
X63751Y117607D01*
X63735Y117580D01*
X63718Y117563D01*
X63712Y117546D01*
X63707Y117541D01*
X63685Y117497D01*
X63662Y117452D01*
X63646Y117369D01*
X63640Y117335D01*
X63635Y117308D01*
Y117286D01*
Y117280D01*
Y114777D01*
Y114722D01*
X63646Y114666D01*
X63651Y114622D01*
X63662Y114588D01*
X63674Y114555D01*
X63685Y114533D01*
X63690Y114522D01*
X63696Y114516D01*
X63718Y114483D01*
X63751Y114455D01*
X63812Y114411D01*
X63846Y114394D01*
X63868Y114383D01*
X63884Y114372D01*
X63890D01*
X63951Y114355D01*
X64007Y114339D01*
X64034Y114333D01*
X64056D01*
X64068Y114327D01*
X64073D01*
X64151Y114322D01*
X64223Y114316D01*
X64251Y114311D01*
X64290D01*
Y114000D01*
X61570D01*
Y114311D01*
X61653Y114322D01*
X61725Y114333D01*
X61753Y114339D01*
X61775Y114344D01*
X61787Y114350D01*
X61792D01*
X61864Y114377D01*
X61920Y114400D01*
X61942Y114411D01*
X61959Y114416D01*
X61970Y114422D01*
X61975D01*
X62059Y114466D01*
X62086Y114494D01*
X62114Y114516D01*
X62136Y114544D01*
X62153Y114560D01*
X62158Y114572D01*
X62164Y114577D01*
X62186Y114616D01*
X62197Y114660D01*
X62219Y114744D01*
Y114777D01*
X62225Y114810D01*
Y114827D01*
Y114832D01*
Y118246D01*
X62292Y118312D01*
X64395Y118201D01*
D02*
G37*
G36*
X44359Y119761D02*
X44315Y119750D01*
X44271Y119744D01*
X44176Y119722D01*
X44132Y119711D01*
X44099Y119705D01*
X44076Y119700D01*
X44071D01*
X44004Y119683D01*
X43938Y119667D01*
X43882Y119655D01*
X43838Y119639D01*
X43799Y119628D01*
X43766Y119617D01*
X43749Y119606D01*
X43744D01*
X43682Y119578D01*
X43633Y119544D01*
X43594Y119511D01*
X43560Y119483D01*
X43544Y119461D01*
X43527Y119439D01*
X43516Y119428D01*
Y119422D01*
X43488Y119339D01*
X43472Y119256D01*
X43466Y119223D01*
Y119195D01*
Y119173D01*
Y119167D01*
Y114866D01*
Y114810D01*
X43477Y114755D01*
X43483Y114710D01*
X43494Y114672D01*
X43505Y114644D01*
X43516Y114616D01*
X43521Y114605D01*
X43527Y114599D01*
X43555Y114560D01*
X43582Y114527D01*
X43655Y114472D01*
X43688Y114455D01*
X43716Y114438D01*
X43738Y114433D01*
X43744Y114427D01*
X43782Y114416D01*
X43827Y114400D01*
X43921Y114383D01*
X43966Y114377D01*
X44004Y114372D01*
X44026Y114366D01*
X44038D01*
X44110Y114361D01*
X44171Y114350D01*
X44226Y114344D01*
X44271D01*
X44310Y114339D01*
X44337Y114333D01*
X44359D01*
Y114000D01*
X41107D01*
Y114333D01*
X41207Y114344D01*
X41257Y114350D01*
X41307Y114361D01*
X41351Y114366D01*
X41385Y114372D01*
X41407Y114377D01*
X41412D01*
X41473Y114394D01*
X41524Y114405D01*
X41568Y114416D01*
X41601Y114427D01*
X41629Y114438D01*
X41646Y114444D01*
X41657Y114450D01*
X41662D01*
X41718Y114477D01*
X41768Y114511D01*
X41807Y114538D01*
X41834Y114566D01*
X41857Y114588D01*
X41873Y114611D01*
X41879Y114622D01*
X41884Y114627D01*
X41917Y114716D01*
X41934Y114805D01*
Y114838D01*
X41940Y114866D01*
Y114888D01*
Y114894D01*
Y116747D01*
X41707D01*
X41490Y116486D01*
X41390Y116364D01*
X41296Y116242D01*
X41207Y116131D01*
X41129Y116026D01*
X41052Y115931D01*
X40980Y115843D01*
X40918Y115759D01*
X40863Y115687D01*
X40819Y115626D01*
X40780Y115576D01*
X40747Y115532D01*
X40724Y115504D01*
X40713Y115482D01*
X40708Y115476D01*
X40630Y115371D01*
X40552Y115254D01*
X40380Y115016D01*
X40214Y114766D01*
X40130Y114649D01*
X40053Y114533D01*
X39981Y114422D01*
X39914Y114322D01*
X39853Y114233D01*
X39803Y114155D01*
X39764Y114089D01*
X39731Y114039D01*
X39709Y114011D01*
X39703Y114000D01*
X37367D01*
Y114333D01*
X37394D01*
X37428Y114339D01*
X37500Y114344D01*
X37533Y114350D01*
X37561D01*
X37583Y114355D01*
X37589D01*
X37644Y114366D01*
X37688Y114372D01*
X37733Y114383D01*
X37772Y114389D01*
X37799Y114394D01*
X37822Y114400D01*
X37833Y114405D01*
X37838D01*
X37905Y114438D01*
X37971Y114477D01*
X38044Y114527D01*
X38105Y114577D01*
X38160Y114627D01*
X38205Y114666D01*
X38232Y114694D01*
X38238Y114705D01*
X38243D01*
X38327Y114794D01*
X38393Y114871D01*
X38460Y114944D01*
X38510Y115005D01*
X38549Y115049D01*
X38582Y115088D01*
X38599Y115110D01*
X38604Y115116D01*
X38760Y115310D01*
X38909Y115493D01*
X39048Y115665D01*
X39109Y115748D01*
X39165Y115820D01*
X39220Y115887D01*
X39270Y115948D01*
X39309Y116004D01*
X39348Y116048D01*
X39376Y116081D01*
X39398Y116109D01*
X39409Y116126D01*
X39415Y116131D01*
X39553Y116314D01*
X39686Y116481D01*
X39803Y116631D01*
X39853Y116697D01*
X39903Y116758D01*
X39947Y116814D01*
X39986Y116864D01*
X40019Y116908D01*
X40047Y116947D01*
X40069Y116975D01*
X40086Y116997D01*
X40092Y117008D01*
X40097Y117014D01*
X39958Y117058D01*
X39836Y117102D01*
X39714Y117152D01*
X39609Y117202D01*
X39509Y117252D01*
X39415Y117302D01*
X39331Y117352D01*
X39259Y117397D01*
X39193Y117441D01*
X39137Y117485D01*
X39087Y117524D01*
X39048Y117552D01*
X39020Y117580D01*
X38998Y117602D01*
X38987Y117613D01*
X38982Y117619D01*
X38915Y117696D01*
X38860Y117774D01*
X38809Y117857D01*
X38765Y117940D01*
X38732Y118029D01*
X38699Y118113D01*
X38654Y118279D01*
X38643Y118351D01*
X38632Y118423D01*
X38621Y118484D01*
X38615Y118540D01*
X38610Y118584D01*
Y118618D01*
Y118640D01*
Y118645D01*
X38615Y118779D01*
X38638Y118901D01*
X38665Y119017D01*
X38704Y119123D01*
X38748Y119223D01*
X38798Y119311D01*
X38854Y119389D01*
X38909Y119461D01*
X38965Y119528D01*
X39020Y119583D01*
X39070Y119628D01*
X39115Y119667D01*
X39154Y119694D01*
X39181Y119717D01*
X39204Y119728D01*
X39209Y119733D01*
X39326Y119794D01*
X39453Y119850D01*
X39592Y119900D01*
X39731Y119944D01*
X39875Y119977D01*
X40019Y120005D01*
X40164Y120027D01*
X40303Y120050D01*
X40430Y120066D01*
X40552Y120077D01*
X40663Y120083D01*
X40758Y120088D01*
X40835Y120094D01*
X44359D01*
Y119761D01*
D02*
G37*
G36*
X21111Y118373D02*
X21305Y118351D01*
X21394Y118340D01*
X21477Y118329D01*
X21560Y118312D01*
X21632Y118296D01*
X21699Y118279D01*
X21760Y118268D01*
X21810Y118251D01*
X21854Y118240D01*
X21893Y118229D01*
X21915Y118218D01*
X21932Y118212D01*
X21937D01*
X22104Y118146D01*
X22254Y118068D01*
X22387Y117991D01*
X22504Y117918D01*
X22554Y117885D01*
X22598Y117852D01*
X22631Y117818D01*
X22665Y117796D01*
X22687Y117774D01*
X22703Y117757D01*
X22715Y117752D01*
X22720Y117746D01*
X22837Y117624D01*
X22937Y117502D01*
X23025Y117380D01*
X23092Y117269D01*
X23147Y117175D01*
X23170Y117130D01*
X23186Y117097D01*
X23203Y117069D01*
X23214Y117047D01*
X23220Y117036D01*
Y117030D01*
X23275Y116875D01*
X23314Y116719D01*
X23342Y116564D01*
X23358Y116425D01*
X23369Y116359D01*
Y116298D01*
X23375Y116248D01*
X23381Y116203D01*
Y116165D01*
Y116137D01*
Y116120D01*
Y116115D01*
X23375Y115926D01*
X23353Y115748D01*
X23320Y115587D01*
X23303Y115515D01*
X23286Y115449D01*
X23269Y115387D01*
X23253Y115332D01*
X23236Y115288D01*
X23220Y115243D01*
X23209Y115216D01*
X23197Y115188D01*
X23192Y115177D01*
Y115171D01*
X23114Y115021D01*
X23031Y114882D01*
X22948Y114760D01*
X22864Y114660D01*
X22792Y114572D01*
X22759Y114538D01*
X22737Y114511D01*
X22715Y114488D01*
X22698Y114472D01*
X22687Y114466D01*
X22681Y114461D01*
X22548Y114355D01*
X22415Y114266D01*
X22287Y114189D01*
X22165Y114122D01*
X22060Y114072D01*
X22015Y114056D01*
X21976Y114039D01*
X21949Y114028D01*
X21921Y114017D01*
X21910Y114011D01*
X21904D01*
X21738Y113961D01*
X21566Y113922D01*
X21405Y113900D01*
X21255Y113878D01*
X21188Y113872D01*
X21127Y113867D01*
X21072D01*
X21027Y113861D01*
X20938D01*
X20717Y113867D01*
X20517Y113889D01*
X20422Y113900D01*
X20334Y113917D01*
X20250Y113928D01*
X20173Y113944D01*
X20106Y113961D01*
X20045Y113978D01*
X19989Y113989D01*
X19945Y114000D01*
X19912Y114011D01*
X19884Y114022D01*
X19867Y114028D01*
X19862D01*
X19690Y114100D01*
X19534Y114178D01*
X19396Y114261D01*
X19279Y114339D01*
X19229Y114377D01*
X19185Y114411D01*
X19146Y114444D01*
X19113Y114466D01*
X19085Y114488D01*
X19068Y114505D01*
X19057Y114516D01*
X19051Y114522D01*
X18940Y114638D01*
X18841Y114760D01*
X18757Y114882D01*
X18691Y114994D01*
X18635Y115093D01*
X18619Y115138D01*
X18602Y115171D01*
X18585Y115204D01*
X18574Y115226D01*
X18569Y115238D01*
Y115243D01*
X18513Y115404D01*
X18474Y115565D01*
X18441Y115715D01*
X18424Y115854D01*
X18413Y115920D01*
Y115976D01*
X18408Y116026D01*
X18402Y116065D01*
Y116103D01*
Y116126D01*
Y116142D01*
Y116148D01*
X18408Y116325D01*
X18430Y116486D01*
X18458Y116636D01*
X18474Y116708D01*
X18485Y116770D01*
X18502Y116831D01*
X18519Y116880D01*
X18535Y116925D01*
X18546Y116964D01*
X18558Y116997D01*
X18569Y117019D01*
X18574Y117030D01*
Y117036D01*
X18641Y117186D01*
X18719Y117324D01*
X18802Y117441D01*
X18880Y117546D01*
X18946Y117630D01*
X18979Y117663D01*
X19007Y117696D01*
X19029Y117719D01*
X19040Y117735D01*
X19051Y117741D01*
X19057Y117746D01*
X19185Y117852D01*
X19318Y117946D01*
X19451Y118024D01*
X19573Y118090D01*
X19629Y118118D01*
X19684Y118146D01*
X19729Y118163D01*
X19768Y118185D01*
X19801Y118196D01*
X19823Y118207D01*
X19840Y118212D01*
X19845D01*
X20023Y118268D01*
X20200Y118307D01*
X20378Y118340D01*
X20545Y118357D01*
X20617Y118368D01*
X20683D01*
X20744Y118373D01*
X20800Y118379D01*
X20900D01*
X21111Y118373D01*
D02*
G37*
G36*
X59178D02*
X59339Y118362D01*
X59483Y118346D01*
X59622Y118318D01*
X59755Y118290D01*
X59877Y118262D01*
X59988Y118224D01*
X60088Y118190D01*
X60183Y118157D01*
X60260Y118124D01*
X60332Y118090D01*
X60388Y118063D01*
X60432Y118035D01*
X60466Y118018D01*
X60488Y118007D01*
X60493Y118001D01*
X60593Y117929D01*
X60682Y117852D01*
X60760Y117769D01*
X60826Y117685D01*
X60882Y117602D01*
X60932Y117519D01*
X60965Y117435D01*
X60998Y117358D01*
X61021Y117280D01*
X61037Y117213D01*
X61054Y117152D01*
X61059Y117097D01*
X61065Y117052D01*
X61071Y117019D01*
Y116997D01*
Y116991D01*
X61065Y116908D01*
X61059Y116831D01*
X61026Y116686D01*
X60982Y116559D01*
X60932Y116448D01*
X60910Y116403D01*
X60882Y116359D01*
X60860Y116320D01*
X60843Y116292D01*
X60821Y116270D01*
X60810Y116253D01*
X60804Y116242D01*
X60799Y116237D01*
X60743Y116181D01*
X60682Y116126D01*
X60549Y116026D01*
X60410Y115937D01*
X60271Y115859D01*
X60205Y115826D01*
X60144Y115798D01*
X60094Y115776D01*
X60044Y115754D01*
X60005Y115737D01*
X59977Y115726D01*
X59955Y115715D01*
X59949D01*
Y115665D01*
X60044Y115637D01*
X60138Y115604D01*
X60177Y115593D01*
X60210Y115582D01*
X60233Y115576D01*
X60238Y115571D01*
X60299Y115549D01*
X60355Y115526D01*
X60405Y115504D01*
X60449Y115482D01*
X60482Y115460D01*
X60505Y115449D01*
X60521Y115437D01*
X60527Y115432D01*
X60577Y115393D01*
X60621Y115360D01*
X60660Y115321D01*
X60693Y115288D01*
X60721Y115254D01*
X60738Y115232D01*
X60749Y115216D01*
X60754Y115210D01*
X60782Y115160D01*
X60804Y115110D01*
X60815Y115060D01*
X60826Y115016D01*
X60832Y114971D01*
X60838Y114938D01*
Y114916D01*
Y114910D01*
X60826Y114805D01*
X60804Y114705D01*
X60771Y114616D01*
X60726Y114544D01*
X60688Y114477D01*
X60654Y114433D01*
X60632Y114405D01*
X60621Y114394D01*
X60532Y114316D01*
X60432Y114244D01*
X60327Y114183D01*
X60227Y114133D01*
X60144Y114094D01*
X60105Y114078D01*
X60072Y114061D01*
X60044Y114056D01*
X60022Y114044D01*
X60010Y114039D01*
X60005D01*
Y113995D01*
X60127Y113989D01*
X60238Y113978D01*
X60343Y113967D01*
X60443Y113950D01*
X60532Y113928D01*
X60610Y113911D01*
X60688Y113889D01*
X60749Y113867D01*
X60810Y113845D01*
X60860Y113828D01*
X60899Y113806D01*
X60932Y113789D01*
X60960Y113778D01*
X60976Y113767D01*
X60987Y113756D01*
X60993D01*
X61048Y113711D01*
X61098Y113667D01*
X61137Y113623D01*
X61176Y113573D01*
X61204Y113528D01*
X61231Y113478D01*
X61270Y113395D01*
X61293Y113312D01*
X61304Y113251D01*
X61309Y113228D01*
Y113212D01*
Y113201D01*
Y113195D01*
X61304Y113095D01*
X61282Y113001D01*
X61254Y112918D01*
X61220Y112835D01*
X61176Y112762D01*
X61126Y112696D01*
X61071Y112635D01*
X61015Y112579D01*
X60965Y112529D01*
X60910Y112490D01*
X60860Y112452D01*
X60815Y112424D01*
X60782Y112402D01*
X60749Y112385D01*
X60732Y112379D01*
X60726Y112374D01*
X60610Y112324D01*
X60482Y112285D01*
X60349Y112246D01*
X60210Y112213D01*
X59922Y112163D01*
X59783Y112146D01*
X59644Y112130D01*
X59517Y112119D01*
X59395Y112113D01*
X59289Y112107D01*
X59189Y112102D01*
X59111Y112096D01*
X58878D01*
X58756Y112102D01*
X58640Y112107D01*
X58529Y112113D01*
X58423Y112124D01*
X58329Y112135D01*
X58240Y112146D01*
X58157Y112157D01*
X58085Y112169D01*
X58024Y112180D01*
X57968Y112191D01*
X57918Y112202D01*
X57885Y112207D01*
X57857Y112213D01*
X57841Y112218D01*
X57835D01*
X57663Y112268D01*
X57507Y112324D01*
X57369Y112379D01*
X57302Y112407D01*
X57247Y112435D01*
X57197Y112457D01*
X57152Y112485D01*
X57113Y112502D01*
X57080Y112524D01*
X57052Y112535D01*
X57036Y112546D01*
X57025Y112557D01*
X57019D01*
X56908Y112640D01*
X56808Y112724D01*
X56725Y112807D01*
X56658Y112884D01*
X56608Y112957D01*
X56569Y113006D01*
X56558Y113029D01*
X56547Y113045D01*
X56542Y113051D01*
Y113057D01*
X56486Y113162D01*
X56447Y113273D01*
X56420Y113373D01*
X56403Y113467D01*
X56386Y113550D01*
X56381Y113611D01*
Y113634D01*
Y113650D01*
Y113661D01*
Y113667D01*
X56386Y113778D01*
X56403Y113878D01*
X56425Y113972D01*
X56447Y114050D01*
X56470Y114111D01*
X56492Y114161D01*
X56508Y114189D01*
X56514Y114200D01*
X56564Y114283D01*
X56620Y114361D01*
X56669Y114422D01*
X56725Y114477D01*
X56769Y114522D01*
X56803Y114555D01*
X56825Y114577D01*
X56836Y114583D01*
X56908Y114633D01*
X56980Y114677D01*
X57052Y114716D01*
X57119Y114749D01*
X57174Y114777D01*
X57224Y114794D01*
X57252Y114805D01*
X57258Y114810D01*
X57263D01*
X57352Y114838D01*
X57441Y114866D01*
X57524Y114882D01*
X57602Y114899D01*
X57663Y114905D01*
X57713Y114910D01*
X57746Y114916D01*
X57829D01*
X57918Y114921D01*
X58007D01*
X58101Y114927D01*
X58190Y114932D01*
X58257D01*
X58284Y114938D01*
X58323D01*
X58473Y114949D01*
X58618Y114955D01*
X58751Y114960D01*
X58867Y114966D01*
X58917Y114971D01*
X59012D01*
X59045Y114977D01*
X59184D01*
X59250Y114982D01*
X59361Y114994D01*
X59456Y115005D01*
X59533Y115016D01*
X59589Y115032D01*
X59628Y115043D01*
X59650Y115049D01*
X59655Y115055D01*
X59705Y115088D01*
X59744Y115127D01*
X59766Y115171D01*
X59789Y115216D01*
X59800Y115260D01*
X59805Y115293D01*
Y115315D01*
Y115321D01*
X59800Y115349D01*
X59794Y115376D01*
X59772Y115432D01*
X59761Y115454D01*
X59755Y115465D01*
X59744Y115476D01*
Y115482D01*
X59700Y115537D01*
X59666Y115576D01*
X59644Y115604D01*
X59633Y115610D01*
X58934D01*
X58784Y115615D01*
X58640Y115626D01*
X58512Y115637D01*
X58401Y115654D01*
X58351Y115665D01*
X58307Y115671D01*
X58268Y115676D01*
X58235Y115687D01*
X58207Y115693D01*
X58190D01*
X58179Y115698D01*
X58174D01*
X58046Y115737D01*
X57929Y115781D01*
X57824Y115826D01*
X57730Y115865D01*
X57657Y115904D01*
X57602Y115937D01*
X57585Y115948D01*
X57569Y115959D01*
X57563Y115965D01*
X57557D01*
X57469Y116031D01*
X57385Y116098D01*
X57313Y116170D01*
X57252Y116231D01*
X57208Y116292D01*
X57169Y116337D01*
X57147Y116370D01*
X57141Y116381D01*
X57086Y116481D01*
X57047Y116581D01*
X57019Y116675D01*
X57002Y116758D01*
X56986Y116831D01*
X56980Y116892D01*
Y116914D01*
Y116930D01*
Y116936D01*
Y116941D01*
X56986Y117025D01*
X56991Y117102D01*
X57008Y117175D01*
X57025Y117241D01*
X57041Y117297D01*
X57052Y117335D01*
X57064Y117363D01*
X57069Y117374D01*
X57102Y117452D01*
X57141Y117524D01*
X57186Y117596D01*
X57224Y117652D01*
X57263Y117702D01*
X57291Y117741D01*
X57313Y117763D01*
X57319Y117774D01*
X56370D01*
Y118240D01*
X58040D01*
X58096Y118257D01*
X58162Y118268D01*
X58229Y118285D01*
X58296Y118301D01*
X58357Y118312D01*
X58407Y118324D01*
X58440Y118329D01*
X58451D01*
X58656Y118357D01*
X58751Y118368D01*
X58834Y118373D01*
X58912Y118379D01*
X59017D01*
X59178Y118373D01*
D02*
G37*
%LPC*%
G36*
X42224Y109219D02*
X42189D01*
X42109Y109215D01*
X42042Y109201D01*
X41980Y109188D01*
X41931Y109170D01*
X41887Y109148D01*
X41860Y109135D01*
X41838Y109121D01*
X41834Y109117D01*
X41785Y109077D01*
X41741Y109037D01*
X41705Y108993D01*
X41674Y108953D01*
X41647Y108917D01*
X41629Y108886D01*
X41621Y108868D01*
X41616Y108859D01*
X41589Y108802D01*
X41572Y108739D01*
X41554Y108682D01*
X41536Y108624D01*
X41527Y108571D01*
X41519Y108531D01*
X41514Y108504D01*
Y108500D01*
Y108495D01*
X41501Y108415D01*
X41492Y108340D01*
X41487Y108269D01*
X41483Y108211D01*
X41478Y108158D01*
Y108122D01*
Y108096D01*
Y108091D01*
Y108087D01*
X43046D01*
X43041Y108185D01*
X43028Y108278D01*
X43015Y108362D01*
X42997Y108442D01*
X42979Y108518D01*
X42957Y108584D01*
X42935Y108646D01*
X42908Y108704D01*
X42886Y108753D01*
X42864Y108797D01*
X42846Y108833D01*
X42824Y108864D01*
X42810Y108886D01*
X42797Y108904D01*
X42793Y108913D01*
X42788Y108917D01*
X42744Y108970D01*
X42695Y109015D01*
X42642Y109059D01*
X42593Y109090D01*
X42544Y109121D01*
X42495Y109143D01*
X42398Y109184D01*
X42313Y109201D01*
X42278Y109210D01*
X42247Y109215D01*
X42224Y109219D01*
D02*
G37*
G36*
X47188Y110595D02*
X46611D01*
X46527Y110591D01*
X46447Y110582D01*
X46371Y110573D01*
X46305Y110555D01*
X46243Y110533D01*
X46180Y110511D01*
X46127Y110489D01*
X46078Y110467D01*
X46038Y110440D01*
X45998Y110418D01*
X45967Y110396D01*
X45941Y110373D01*
X45923Y110356D01*
X45910Y110347D01*
X45901Y110338D01*
X45896Y110333D01*
X45852Y110285D01*
X45812Y110231D01*
X45776Y110174D01*
X45745Y110116D01*
X45723Y110058D01*
X45701Y110000D01*
X45670Y109885D01*
X45661Y109836D01*
X45652Y109787D01*
X45648Y109743D01*
X45643Y109707D01*
X45639Y109676D01*
Y109650D01*
Y109636D01*
Y109632D01*
X45643Y109534D01*
X45652Y109445D01*
X45670Y109361D01*
X45688Y109281D01*
X45710Y109210D01*
X45737Y109139D01*
X45768Y109077D01*
X45794Y109024D01*
X45825Y108975D01*
X45856Y108930D01*
X45883Y108890D01*
X45905Y108864D01*
X45923Y108837D01*
X45941Y108819D01*
X45950Y108810D01*
X45954Y108806D01*
X46016Y108753D01*
X46078Y108708D01*
X46145Y108668D01*
X46212Y108633D01*
X46278Y108602D01*
X46340Y108580D01*
X46469Y108544D01*
X46527Y108531D01*
X46576Y108522D01*
X46624Y108513D01*
X46664Y108509D01*
X46700Y108504D01*
X47188D01*
Y110595D01*
D02*
G37*
G36*
X33247Y109561D02*
X33225D01*
X33136Y109556D01*
X33056Y109543D01*
X32976Y109521D01*
X32905Y109490D01*
X32834Y109454D01*
X32772Y109419D01*
X32718Y109379D01*
X32665Y109334D01*
X32621Y109294D01*
X32581Y109250D01*
X32545Y109215D01*
X32514Y109179D01*
X32492Y109148D01*
X32479Y109126D01*
X32470Y109112D01*
X32465Y109108D01*
X32416Y109019D01*
X32372Y108926D01*
X32337Y108824D01*
X32305Y108722D01*
X32274Y108615D01*
X32252Y108509D01*
X32234Y108406D01*
X32221Y108309D01*
X32208Y108211D01*
X32199Y108127D01*
X32195Y108047D01*
X32190Y107976D01*
X32186Y107922D01*
Y107878D01*
Y107852D01*
Y107847D01*
Y107843D01*
X32190Y107701D01*
X32199Y107567D01*
X32212Y107439D01*
X32226Y107319D01*
X32248Y107208D01*
X32270Y107106D01*
X32297Y107012D01*
X32319Y106928D01*
X32345Y106852D01*
X32372Y106786D01*
X32394Y106728D01*
X32412Y106679D01*
X32430Y106644D01*
X32443Y106617D01*
X32452Y106599D01*
X32456Y106595D01*
X32510Y106511D01*
X32567Y106440D01*
X32630Y106377D01*
X32692Y106324D01*
X32758Y106275D01*
X32820Y106240D01*
X32883Y106209D01*
X32945Y106182D01*
X33003Y106164D01*
X33060Y106151D01*
X33109Y106138D01*
X33149Y106133D01*
X33185Y106129D01*
X33211Y106124D01*
X33233D01*
X33327Y106129D01*
X33411Y106147D01*
X33491Y106169D01*
X33566Y106200D01*
X33633Y106235D01*
X33700Y106275D01*
X33757Y106315D01*
X33806Y106360D01*
X33855Y106404D01*
X33895Y106444D01*
X33926Y106484D01*
X33957Y106519D01*
X33979Y106551D01*
X33993Y106573D01*
X34002Y106590D01*
X34006Y106595D01*
X34055Y106688D01*
X34095Y106786D01*
X34130Y106884D01*
X34161Y106990D01*
X34184Y107092D01*
X34206Y107199D01*
X34224Y107297D01*
X34237Y107394D01*
X34250Y107487D01*
X34259Y107572D01*
X34264Y107647D01*
X34268Y107714D01*
X34272Y107767D01*
Y107807D01*
Y107834D01*
Y107843D01*
X34268Y107994D01*
X34259Y108131D01*
X34246Y108264D01*
X34228Y108384D01*
X34206Y108500D01*
X34184Y108602D01*
X34157Y108695D01*
X34130Y108784D01*
X34108Y108859D01*
X34082Y108922D01*
X34059Y108979D01*
X34037Y109024D01*
X34019Y109059D01*
X34006Y109086D01*
X33997Y109104D01*
X33993Y109108D01*
X33939Y109188D01*
X33877Y109259D01*
X33819Y109317D01*
X33753Y109370D01*
X33691Y109414D01*
X33629Y109450D01*
X33562Y109481D01*
X33504Y109503D01*
X33447Y109521D01*
X33393Y109539D01*
X33344Y109548D01*
X33305Y109552D01*
X33273Y109556D01*
X33247Y109561D01*
D02*
G37*
G36*
X35091Y118029D02*
X35058D01*
X34986Y118024D01*
X34925Y118013D01*
X34869Y117996D01*
X34825Y117979D01*
X34786Y117957D01*
X34758Y117940D01*
X34741Y117929D01*
X34736Y117924D01*
X34691Y117879D01*
X34653Y117830D01*
X34614Y117780D01*
X34586Y117730D01*
X34564Y117685D01*
X34547Y117652D01*
X34542Y117630D01*
X34536Y117619D01*
X34514Y117552D01*
X34497Y117474D01*
X34481Y117402D01*
X34469Y117330D01*
X34458Y117269D01*
X34453Y117219D01*
X34447Y117186D01*
Y117180D01*
Y117175D01*
X34436Y117075D01*
X34431Y116980D01*
X34425Y116892D01*
Y116814D01*
X34420Y116747D01*
Y116697D01*
Y116664D01*
Y116658D01*
Y116653D01*
X35796Y116636D01*
X35790Y116770D01*
X35779Y116892D01*
X35768Y117002D01*
X35757Y117108D01*
X35740Y117202D01*
X35724Y117286D01*
X35702Y117363D01*
X35685Y117435D01*
X35663Y117497D01*
X35646Y117546D01*
X35629Y117591D01*
X35613Y117630D01*
X35602Y117657D01*
X35590Y117674D01*
X35585Y117685D01*
Y117691D01*
X35546Y117752D01*
X35507Y117802D01*
X35463Y117846D01*
X35418Y117885D01*
X35374Y117918D01*
X35330Y117946D01*
X35246Y117985D01*
X35174Y118013D01*
X35113Y118024D01*
X35091Y118029D01*
D02*
G37*
G36*
X12047D02*
X12014D01*
X11942Y118024D01*
X11881Y118013D01*
X11825Y117996D01*
X11781Y117979D01*
X11742Y117957D01*
X11714Y117940D01*
X11698Y117929D01*
X11692Y117924D01*
X11648Y117879D01*
X11609Y117830D01*
X11570Y117780D01*
X11542Y117730D01*
X11520Y117685D01*
X11503Y117652D01*
X11498Y117630D01*
X11492Y117619D01*
X11470Y117552D01*
X11454Y117474D01*
X11437Y117402D01*
X11426Y117330D01*
X11415Y117269D01*
X11409Y117219D01*
X11404Y117186D01*
Y117180D01*
Y117175D01*
X11393Y117075D01*
X11387Y116980D01*
X11381Y116892D01*
Y116814D01*
X11376Y116747D01*
Y116697D01*
Y116664D01*
Y116658D01*
Y116653D01*
X12752Y116636D01*
X12747Y116770D01*
X12736Y116892D01*
X12724Y117002D01*
X12713Y117108D01*
X12697Y117202D01*
X12680Y117286D01*
X12658Y117363D01*
X12641Y117435D01*
X12619Y117497D01*
X12602Y117546D01*
X12586Y117591D01*
X12569Y117630D01*
X12558Y117657D01*
X12547Y117674D01*
X12541Y117685D01*
Y117691D01*
X12503Y117752D01*
X12464Y117802D01*
X12419Y117846D01*
X12375Y117885D01*
X12331Y117918D01*
X12286Y117946D01*
X12203Y117985D01*
X12131Y118013D01*
X12070Y118024D01*
X12047Y118029D01*
D02*
G37*
G36*
X41940Y119705D02*
X41607D01*
X41490Y119700D01*
X41385Y119694D01*
X41279Y119678D01*
X41190Y119661D01*
X41102Y119639D01*
X41018Y119617D01*
X40946Y119589D01*
X40885Y119567D01*
X40824Y119539D01*
X40774Y119511D01*
X40735Y119489D01*
X40696Y119467D01*
X40669Y119450D01*
X40652Y119433D01*
X40641Y119428D01*
X40635Y119422D01*
X40574Y119367D01*
X40525Y119300D01*
X40475Y119234D01*
X40436Y119161D01*
X40402Y119089D01*
X40375Y119017D01*
X40336Y118867D01*
X40319Y118801D01*
X40308Y118740D01*
X40303Y118679D01*
X40297Y118629D01*
X40291Y118590D01*
Y118556D01*
Y118534D01*
Y118529D01*
X40297Y118401D01*
X40308Y118279D01*
X40325Y118168D01*
X40347Y118063D01*
X40375Y117968D01*
X40402Y117885D01*
X40436Y117807D01*
X40463Y117735D01*
X40497Y117674D01*
X40530Y117624D01*
X40558Y117580D01*
X40586Y117541D01*
X40608Y117513D01*
X40624Y117497D01*
X40635Y117485D01*
X40641Y117480D01*
X40708Y117424D01*
X40780Y117374D01*
X40857Y117330D01*
X40941Y117291D01*
X41018Y117258D01*
X41102Y117230D01*
X41257Y117191D01*
X41329Y117180D01*
X41401Y117169D01*
X41462Y117164D01*
X41512Y117158D01*
X41557Y117152D01*
X41940D01*
Y119705D01*
D02*
G37*
G36*
X20938Y118029D02*
X20889D01*
X20789Y118024D01*
X20700Y118007D01*
X20622Y117979D01*
X20556Y117952D01*
X20500Y117924D01*
X20461Y117896D01*
X20434Y117879D01*
X20428Y117874D01*
X20361Y117813D01*
X20306Y117741D01*
X20256Y117669D01*
X20217Y117602D01*
X20184Y117541D01*
X20156Y117491D01*
X20145Y117458D01*
X20139Y117452D01*
Y117447D01*
X20112Y117358D01*
X20084Y117258D01*
X20062Y117158D01*
X20045Y117058D01*
X20028Y116969D01*
X20023Y116930D01*
X20017Y116903D01*
Y116875D01*
X20012Y116853D01*
Y116842D01*
Y116836D01*
X19995Y116697D01*
X19984Y116570D01*
X19978Y116453D01*
X19973Y116353D01*
X19967Y116270D01*
Y116237D01*
Y116209D01*
Y116181D01*
Y116165D01*
Y116159D01*
Y116153D01*
Y115987D01*
X19973Y115837D01*
X19984Y115698D01*
X19989Y115582D01*
X19995Y115532D01*
X20001Y115487D01*
X20006Y115449D01*
X20012Y115415D01*
Y115387D01*
X20017Y115371D01*
Y115360D01*
Y115354D01*
X20034Y115232D01*
X20056Y115121D01*
X20078Y115021D01*
X20100Y114938D01*
X20123Y114866D01*
X20139Y114816D01*
X20150Y114783D01*
X20156Y114777D01*
Y114771D01*
X20200Y114672D01*
X20245Y114588D01*
X20295Y114516D01*
X20345Y114455D01*
X20383Y114411D01*
X20417Y114377D01*
X20439Y114355D01*
X20450Y114350D01*
X20522Y114305D01*
X20594Y114272D01*
X20667Y114244D01*
X20739Y114227D01*
X20800Y114216D01*
X20844Y114211D01*
X20889D01*
X20989Y114216D01*
X21083Y114233D01*
X21160Y114261D01*
X21233Y114289D01*
X21288Y114311D01*
X21327Y114339D01*
X21349Y114355D01*
X21360Y114361D01*
X21427Y114422D01*
X21482Y114494D01*
X21532Y114560D01*
X21571Y114633D01*
X21605Y114688D01*
X21627Y114738D01*
X21638Y114771D01*
X21643Y114777D01*
Y114783D01*
X21682Y114899D01*
X21715Y115010D01*
X21738Y115116D01*
X21760Y115210D01*
X21771Y115288D01*
X21782Y115349D01*
Y115371D01*
X21788Y115387D01*
Y115393D01*
Y115399D01*
X21799Y115521D01*
X21804Y115648D01*
X21810Y115776D01*
Y115898D01*
X21815Y116009D01*
Y116053D01*
Y116092D01*
Y116126D01*
Y116148D01*
Y116165D01*
Y116170D01*
Y116303D01*
X21810Y116425D01*
X21804Y116542D01*
X21799Y116647D01*
X21793Y116731D01*
X21788Y116764D01*
Y116797D01*
Y116819D01*
X21782Y116836D01*
Y116847D01*
Y116853D01*
X21766Y116969D01*
X21749Y117080D01*
X21727Y117180D01*
X21710Y117263D01*
X21688Y117330D01*
X21677Y117380D01*
X21666Y117413D01*
X21660Y117424D01*
X21621Y117519D01*
X21571Y117602D01*
X21527Y117680D01*
X21482Y117741D01*
X21438Y117791D01*
X21405Y117830D01*
X21383Y117852D01*
X21377Y117857D01*
X21305Y117913D01*
X21222Y117957D01*
X21144Y117985D01*
X21066Y118007D01*
X20994Y118018D01*
X20938Y118029D01*
D02*
G37*
G36*
X59067Y118046D02*
X59039D01*
X58978Y118040D01*
X58923Y118035D01*
X58823Y118001D01*
X58734Y117952D01*
X58667Y117902D01*
X58612Y117846D01*
X58573Y117796D01*
X58551Y117763D01*
X58545Y117757D01*
Y117752D01*
X58490Y117635D01*
X58451Y117502D01*
X58423Y117369D01*
X58407Y117247D01*
X58390Y117130D01*
Y117086D01*
X58384Y117041D01*
Y117008D01*
Y116980D01*
Y116964D01*
Y116958D01*
X58390Y116786D01*
X58412Y116631D01*
X58423Y116564D01*
X58434Y116498D01*
X58451Y116442D01*
X58468Y116392D01*
X58484Y116342D01*
X58495Y116303D01*
X58512Y116270D01*
X58523Y116242D01*
X58534Y116220D01*
X58545Y116203D01*
X58551Y116198D01*
Y116192D01*
X58584Y116148D01*
X58618Y116103D01*
X58695Y116037D01*
X58773Y115992D01*
X58851Y115959D01*
X58923Y115943D01*
X58978Y115931D01*
X59000Y115926D01*
X59028D01*
X59084Y115931D01*
X59134Y115937D01*
X59228Y115970D01*
X59306Y116020D01*
X59372Y116076D01*
X59428Y116131D01*
X59461Y116181D01*
X59489Y116215D01*
X59494Y116220D01*
Y116226D01*
X59550Y116342D01*
X59589Y116470D01*
X59617Y116597D01*
X59633Y116719D01*
X59644Y116831D01*
X59650Y116875D01*
X59655Y116914D01*
Y116947D01*
Y116969D01*
Y116986D01*
Y116991D01*
X59650Y117141D01*
Y117208D01*
X59644Y117269D01*
X59639Y117319D01*
Y117358D01*
X59633Y117380D01*
Y117391D01*
X59622Y117463D01*
X59605Y117530D01*
X59589Y117585D01*
X59572Y117641D01*
X59555Y117680D01*
X59544Y117707D01*
X59539Y117730D01*
X59533Y117735D01*
X59500Y117791D01*
X59467Y117835D01*
X59433Y117874D01*
X59406Y117907D01*
X59378Y117929D01*
X59356Y117946D01*
X59339Y117957D01*
X59333Y117963D01*
X59284Y117991D01*
X59233Y118013D01*
X59184Y118024D01*
X59139Y118035D01*
X59100Y118040D01*
X59067Y118046D01*
D02*
G37*
G36*
X59594Y113917D02*
X58878D01*
X58823Y113911D01*
X58629D01*
X58507Y113906D01*
X58401Y113900D01*
X58312Y113895D01*
X58240Y113889D01*
X58185Y113883D01*
X58146D01*
X58123Y113878D01*
X58118D01*
X58018Y113845D01*
X57940Y113806D01*
X57879Y113767D01*
X57829Y113728D01*
X57790Y113695D01*
X57768Y113667D01*
X57757Y113650D01*
X57752Y113645D01*
X57724Y113589D01*
X57702Y113539D01*
X57691Y113489D01*
X57679Y113445D01*
X57674Y113412D01*
X57668Y113384D01*
Y113362D01*
Y113356D01*
X57674Y113267D01*
X57679Y113190D01*
X57696Y113118D01*
X57713Y113045D01*
X57735Y112984D01*
X57763Y112929D01*
X57790Y112873D01*
X57813Y112829D01*
X57841Y112790D01*
X57868Y112757D01*
X57918Y112701D01*
X57951Y112674D01*
X57957Y112662D01*
X57963D01*
X58018Y112624D01*
X58085Y112590D01*
X58218Y112535D01*
X58357Y112502D01*
X58495Y112474D01*
X58556Y112463D01*
X58618Y112457D01*
X58667Y112452D01*
X58717D01*
X58751Y112446D01*
X58806D01*
X58939Y112452D01*
X59050Y112457D01*
X59145Y112468D01*
X59228Y112485D01*
X59289Y112496D01*
X59333Y112507D01*
X59356Y112513D01*
X59367Y112518D01*
X59433Y112546D01*
X59494Y112579D01*
X59550Y112612D01*
X59600Y112640D01*
X59644Y112668D01*
X59672Y112690D01*
X59694Y112707D01*
X59700Y112712D01*
X59744Y112757D01*
X59783Y112796D01*
X59816Y112840D01*
X59844Y112879D01*
X59861Y112907D01*
X59877Y112934D01*
X59883Y112951D01*
X59888Y112957D01*
X59922Y113045D01*
X59933Y113084D01*
X59938Y113123D01*
Y113151D01*
X59944Y113173D01*
Y113184D01*
Y113190D01*
X59938Y113278D01*
X59927Y113362D01*
X59911Y113434D01*
X59894Y113495D01*
X59877Y113550D01*
X59861Y113584D01*
X59850Y113611D01*
X59844Y113617D01*
X59805Y113678D01*
X59761Y113739D01*
X59722Y113789D01*
X59683Y113833D01*
X59644Y113867D01*
X59617Y113895D01*
X59600Y113911D01*
X59594Y113917D01*
D02*
G37*
%LPD*%
M02*
