M48
;Layer_Color=9474304
;FILE_FORMAT=2:5
INCH,LZ
;TYPE=PLATED
T1F00S00C0.01000
T2F00S00C0.09000
%
T01
X0005Y001
X001974Y0016
X0018Y0026858
X0016Y0035032
X0005Y0036
X0048Y0038
X004Y005
X0039Y0009142
X003
X0064Y003
X0061298Y00985
X0074012
X0048583
X004315Y0084
Y0076
Y0067902
Y0062
X0048
X0034Y0057
X002115
X0014752Y007222
X0005Y0066902
X0004471Y00985
X00132
X002193
X0028Y008115
X0032Y0075902
T02
X007Y013
X001
M30
