M48
;Layer_Color=9474304
;FILE_FORMAT=2:5
INCH,LZ
;TYPE=PLATED
T1F00S00C0.01000
T2F00S00C0.02362
T3F00S00C0.04600
%
T01
X0024Y003225
X0032243Y0032391
X0039Y0034
X0032Y0043
X0024Y0041859
X0034Y0055712
X0054Y0028
X0049Y0018
X0084Y0016
X0086Y0028
X0113Y0024
Y0041
X0132Y004
X0133Y0022
X0063Y0052
X0057528Y0076701
X0074Y0075
X0078Y0072
X0083476Y007
X0089Y0098
Y0109
X0091Y0115
X0078Y0119
X0069Y01222
X0064Y0121
X0108Y012
X0106Y0129
X0104488Y01
X0119929Y0077
X012615Y0068
X0115Y006
X0054Y0072
X0053Y0077
X0033685Y007671
Y008712
Y0097079
X0048Y0100512
X0054Y0098
Y0104
X0048Y0116
X003Y012
X0034Y0128858
X0033884Y0065859
T02
X0121244Y0049968
X0126756
T03
X004Y001
X006
X008
X01
M30
